<?xml version="1.0" encoding="utf-8"?>
<!-- Generator: Adobe Illustrator 18.0.0, SVG Export Plug-In . SVG Version: 6.00 Build 0)  -->
<!DOCTYPE svg PUBLIC "-//W3C//DTD SVG 1.1//EN" "http://www.w3.org/Graphics/SVG/1.1/DTD/svg11.dtd">
<svg version="1.1" xmlns="http://www.w3.org/2000/svg" xmlns:xlink="http://www.w3.org/1999/xlink" x="0px" y="0px" width="2800px"
	 height="2800px" viewBox="0 0 2800 2800" enable-background="new 0 0 2800 2800" xml:space="preserve">
<g id="BACKGROUND">
	<g>
		<radialGradient id="SVGID_1_" cx="1400" cy="1400" r="1400" gradientUnits="userSpaceOnUse">
			<stop  offset="0" style="stop-color:#291873"/>
			<stop  offset="1" style="stop-color:#170E43"/>
		</radialGradient>
		<rect fill="url(#SVGID_1_)" width="2800" height="2800"/>
	</g>
</g>
<g id="LINE">
	<g>
		<polygon fill="none" points="617.3,826 601.9,815 353.5,815 374.1,826 		"/>
		<polygon fill="none" points="748.5,688 728,666 407.1,666 437.9,688 		"/>
		<polygon fill="none" points="774.3,716 756,696 449.1,696 476.6,716 		"/>
		<polygon fill="none" points="1058.6,658 1047,633 708.4,633 731.5,658 		"/>
		<polygon fill="none" points="1043.3,625 1030.3,598 674.8,598 700.9,625 		"/>
		<polygon fill="none" points="1026.5,590 1011.8,558 638,558 667.4,590 		"/>
		<polygon fill="none" points="338.6,807 590.7,807 573.4,795 315.5,795 		"/>
		<polygon fill="none" points="859.6,807 848,795 587.1,795 604.5,807 		"/>
		<polygon fill="none" points="840.5,787 827.6,773 556.5,773 575.9,787 		"/>
		<polygon fill="none" points="798.1,741 781.8,724 487.8,724 512.2,741 		"/>
		<polygon fill="none" points="820.1,765 805.6,749 523.4,749 545.3,765 		"/>
		<polygon fill="none" points="395.9,658 720.5,658 697.4,633 361.2,633 		"/>
		<polygon fill="none" points="1404,633 1404,658 1732.6,658 1744.1,633 		"/>
		<polygon fill="none" points="1008.1,550 991.5,514 597.2,514 630.5,550 		"/>
		<polygon fill="none" points="1737.7,666 1727.4,688 2040.5,688 2061.1,666 		"/>
		<polygon fill="none" points="1404,688 1718.6,688 1728.9,666 1404,666 		"/>
		<polygon fill="none" points="1404,558 1404,590 1764.6,590 1779.3,558 		"/>
		<polygon fill="none" points="1404,598 1404,625 1747.9,625 1760.9,598 		"/>
		<polygon fill="none" points="544.4,458 965.1,458 943.5,412 501.2,412 		"/>
		<polygon fill="none" points="1404,514 1404,550 1783.1,550 1799.7,514 		"/>
		<polygon fill="none" points="987.7,506 968.8,466 551.9,466 589.7,506 		"/>
		<polygon fill="none" points="1404,466 1404,506 1803.4,506 1822.4,466 		"/>
		<polygon fill="none" points="996.5,506 1396,506 1396,466 977.6,466 		"/>
		<polygon fill="none" points="2146.6,852 2134.4,860 2361.6,860 2377.8,852 		"/>
		<polygon fill="none" points="1994.4,749 1979.9,765 2254.7,765 2276.6,749 		"/>
		<polygon fill="none" points="2018.2,724 2001.9,741 2287.8,741 2312.2,724 		"/>
		<polygon fill="none" points="1972.4,773 1959.5,787 2224.1,787 2243.5,773 		"/>
		<polygon fill="none" points="2226.6,795 2209.3,807 2461.4,807 2484.5,795 		"/>
		<polygon fill="none" points="1940.4,807 2195.5,807 2212.9,795 1952,795 		"/>
		<polygon fill="none" points="2072,666 2051.5,688 2362.1,688 2392.9,666 		"/>
		<polygon fill="none" points="1769.7,598 1756.7,625 2099.1,625 2125.2,598 		"/>
		<polygon fill="none" points="1741.4,658 2068.5,658 2091.6,633 1753,633 		"/>
		<polygon fill="none" points="2044,696 2025.7,716 2323.4,716 2350.9,696 		"/>
		<polygon fill="none" points="2198.1,815 2182.7,826 2425.9,826 2446.5,815 		"/>
		<polygon fill="none" points="2102.6,633 2079.5,658 2404.1,658 2438.8,633 		"/>
		<polygon fill="none" points="665.6,860 653.4,852 422.2,852 438.4,860 		"/>
		<polygon fill="none" points="2171.5,834 2157.8,844 2392.7,844 2411,834 		"/>
		<polygon fill="none" points="1396,868 1165.6,868 1169.2,876 1396,876 		"/>
		<polygon fill="none" points="917,868 690.6,868 701.3,876 924.1,876 		"/>
		<polygon fill="none" points="687.5,876 676.8,868 453.4,868 467.7,876 		"/>
		<polygon fill="none" points="642.2,844 628.5,834 389,834 407.3,844 		"/>
		<polygon fill="none" points="1156.8,868 927.9,868 935.1,876 1160.4,876 		"/>
		<polygon fill="none" points="1634.4,868 1404,868 1404,876 1630.8,876 		"/>
		<polygon fill="none" points="1723.7,696 1714.5,716 2014.7,716 2033,696 		"/>
		<polygon fill="none" points="2346.6,868 2123.2,868 2112.5,876 2332.3,876 		"/>
		<polygon fill="none" points="2109.4,868 1883,868 1875.9,876 2098.7,876 		"/>
		<polygon fill="none" points="1872.1,868 1643.2,868 1639.6,876 1864.9,876 		"/>
		<polygon fill="none" points="1677.7,795 1671.9,807 1929.5,807 1941,795 		"/>
		<polygon fill="none" points="1396,765 1396,749 1109.9,749 1117.2,765 		"/>
		<polygon fill="none" points="1904.2,834 1659.3,834 1654.7,844 1895.1,844 		"/>
		<polygon fill="none" points="1098,724 1106.2,741 1396,741 1396,724 		"/>
		<polygon fill="none" points="1788.2,558 1773.5,590 2132.6,590 2162,558 		"/>
		<polygon fill="none" points="904.9,844 1145.3,844 1140.7,834 895.8,834 		"/>
		<polygon fill="none" points="1710.8,724 1702.6,741 1991,741 2007.3,724 		"/>
		<polygon fill="none" points="1404,773 1404,787 1672.6,787 1679.1,773 		"/>
		<polygon fill="none" points="1404,795 1404,807 1663.1,807 1668.8,795 		"/>
		<polygon fill="none" points="1396,807 1396,795 1131.2,795 1136.9,807 		"/>
		<polygon fill="none" points="1404,815 1404,826 1654.2,826 1659.3,815 		"/>
		<polygon fill="none" points="1404,749 1404,765 1682.8,765 1690.1,749 		"/>
		<polygon fill="none" points="1396,826 1396,815 1140.7,815 1145.8,826 		"/>
		<polygon fill="none" points="1396,458 1396,412 952.3,412 973.9,458 		"/>
		<polygon fill="none" points="891.4,281 920,343 1396,343 1396,281 		"/>
		<polygon fill="none" points="1396,404 1396,351 923.8,351 948.6,404 		"/>
		<polygon fill="none" points="1396,194 1396,111 811.7,111 850.7,194 		"/>
		<polygon fill="none" points="1396,658 1396,633 1055.9,633 1067.4,658 		"/>
		<polygon fill="none" points="1396,688 1396,666 1071.1,666 1081.4,688 		"/>
		<polygon fill="none" points="1404,844 1645.9,844 1650.4,834 1404,834 		"/>
		<polygon fill="none" points="1396,625 1396,598 1039.1,598 1052.1,625 		"/>
		<polygon fill="none" points="1396,590 1396,558 1020.7,558 1035.4,590 		"/>
		<polygon fill="none" points="1000.3,514 1016.9,550 1396,550 1396,514 		"/>
		<polygon fill="none" points="1396,787 1396,773 1120.9,773 1127.4,787 		"/>
		<polygon fill="none" points="1642.1,852 1404,852 1404,860 1638.1,860 		"/>
		<polygon fill="none" points="2132.8,852 1898.6,852 1890.5,860 2120.6,860 		"/>
		<polygon fill="none" points="1887.6,852 1651,852 1646.9,860 1879.5,860 		"/>
		<polygon fill="none" points="1149,852 912.4,852 920.5,860 1153.1,860 		"/>
		<polygon fill="none" points="909.5,860 901.4,852 667.2,852 679.4,860 		"/>
		<polygon fill="none" points="1396,852 1157.9,852 1161.9,860 1396,860 		"/>
		<polygon fill="none" points="1698.9,749 1691.6,765 1968.9,765 1983.5,749 		"/>
		<polygon fill="none" points="1687.9,773 1681.4,787 1948.5,787 1961.5,773 		"/>
		<polygon fill="none" points="1663,826 1911.7,826 1922,815 1668.2,815 		"/>
		<polygon fill="none" points="1933,815 1922.7,826 2168.9,826 2184.3,815 		"/>
		<polygon fill="none" points="1915.2,834 1906.1,844 2144,844 2157.7,834 		"/>
		<polygon fill="none" points="1097.4,741 1089.2,724 792.7,724 809,741 		"/>
		<polygon fill="none" points="1085.5,716 1076.3,696 767,696 785.3,716 		"/>
		<polygon fill="none" points="759.5,688 1072.6,688 1062.3,666 738.9,666 		"/>
		<polygon fill="none" points="1094.3,716 1396,716 1396,696 1085.2,696 		"/>
		<polygon fill="none" points="1404,696 1404,716 1705.7,716 1714.8,696 		"/>
		<polygon fill="none" points="1404,724 1404,741 1693.8,741 1702,724 		"/>
		<polygon fill="none" points="1128.1,807 1122.3,795 859,795 870.5,807 		"/>
		<polygon fill="none" points="1137,826 1131.8,815 878,815 888.3,826 		"/>
		<polygon fill="none" points="631.1,826 877.3,826 867,815 615.7,815 		"/>
		<polygon fill="none" points="1118.6,787 1112.1,773 838.5,773 851.5,787 		"/>
		<polygon fill="none" points="893.9,844 884.8,834 642.3,834 656,844 		"/>
		<polygon fill="none" points="1108.4,765 1101.1,749 816.5,749 831.1,765 		"/>
		<polygon fill="none" points="1396,834 1149.6,834 1154.1,844 1396,844 		"/>
		<polygon fill="none" points="72.8,1993 43.9,2005 298.5,2005 321.6,1993 		"/>
		<polygon fill="none" points="562.1,2013 300.5,2013 274.6,2027 542.7,2027 		"/>
		<polygon fill="none" points="357.1,1974 117.2,1974 91.5,1985 336.6,1985 		"/>
		<polygon fill="none" points="421.5,1940 197.6,1940 177.4,1948 405.3,1948 		"/>
		<polygon fill="none" points="531.5,2035 259.6,2035 230.6,2051 509.7,2051 		"/>
		<polygon fill="none" points="390.3,1956 158.7,1956 135.9,1966 372.1,1966 		"/>
		<polygon fill="none" points="1741.4,2142 1753,2167 2091.6,2167 2068.5,2142 		"/>
		<polygon fill="none" points="1756.7,2175 1769.7,2202 2125.2,2202 2099.1,2175 		"/>
		<polygon fill="none" points="1773.5,2210 1788.2,2242 2162,2242 2132.6,2210 		"/>
		<polygon fill="none" points="2290.3,2051 2569.4,2051 2540.4,2035 2268.5,2035 		"/>
		<polygon fill="none" points="498.5,2059 215.6,2059 183,2076 474,2076 		"/>
		<polygon fill="none" points="2404.1,2142 2079.5,2142 2102.6,2167 2438.8,2167 		"/>
		<polygon fill="none" points="1979.9,2035 1994.4,2051 2276.6,2051 2254.7,2035 		"/>
		<polygon fill="none" points="2001.9,2059 2018.2,2076 2312.2,2076 2287.8,2059 		"/>
		<polygon fill="none" points="2025.7,2084 2044,2104 2350.9,2104 2323.4,2084 		"/>
		<polygon fill="none" points="2051.5,2112 2072,2134 2392.9,2134 2362.1,2112 		"/>
		<polygon fill="none" points="1959.5,2013 1972.4,2027 2243.5,2027 2224.1,2013 		"/>
		<polygon fill="none" points="1791.9,2250 1808.5,2286 2202.8,2286 2169.5,2250 		"/>
		<polygon fill="none" points="2501.5,2005 2756.1,2005 2727.2,1993 2478.4,1993 		"/>
		<polygon fill="none" points="2427.9,1966 2664.1,1966 2641.3,1956 2409.7,1956 		"/>
		<polygon fill="none" points="2394.7,1948 2622.6,1948 2602.4,1940 2378.5,1940 		"/>
		<polygon fill="none" points="2363.6,1932 2583.7,1932 2565.8,1924 2349.3,1924 		"/>
		<polygon fill="none" points="2463.4,1985 2708.5,1985 2682.8,1974 2442.9,1974 		"/>
		<polygon fill="none" points="2257.3,2027 2525.4,2027 2499.5,2013 2237.9,2013 		"/>
		<polygon fill="none" points="450.7,1924 234.2,1924 216.3,1932 436.4,1932 		"/>
		<polygon fill="none" points="578.8,2294 183.3,2294 126.5,2334 541,2334 		"/>
		<polygon fill="none" points="619.6,2250 244.4,2250 194.5,2286 586.3,2286 		"/>
		<polygon fill="none" points="939.7,2396 493.8,2396 444.2,2449 914.9,2449 		"/>
		<polygon fill="none" points="115.3,2342 50.5,2388 490.3,2388 533.5,2342 		"/>
		<polygon fill="none" points="656.4,2210 299.7,2210 255.6,2242 627,2242 		"/>
		<polygon fill="none" points="1062.3,2134 1072.6,2112 759.5,2112 738.9,2134 		"/>
		<polygon fill="none" points="878.9,2527 372,2527 305.5,2598 845.6,2598 		"/>
		<polygon fill="none" points="850.7,2606 811.7,2689 1396,2689 1396,2606 		"/>
		<polygon fill="none" points="298.1,2606 220.1,2689 802.9,2689 841.9,2606 		"/>
		<polygon fill="none" points="1076.3,2104 1085.5,2084 785.3,2084 767,2104 		"/>
		<polygon fill="none" points="911.2,2457 436.7,2457 379.5,2519 882.6,2519 		"/>
		<polygon fill="none" points="1396,2112 1081.4,2112 1071.1,2134 1396,2134 		"/>
		<polygon fill="none" points="1396,2286 1396,2250 1016.9,2250 1000.3,2286 		"/>
		<polygon fill="none" points="424.1,2112 116.5,2112 75.4,2134 393.3,2134 		"/>
		<polygon fill="none" points="689.9,2175 350,2175 310.9,2202 663.9,2202 		"/>
		<polygon fill="none" points="60.4,2142 14.2,2167 347.4,2167 382.1,2142 		"/>
		<polygon fill="none" points="2255.6,2342 1834.9,2342 1856.5,2388 2298.8,2388 		"/>
		<polygon fill="none" points="1396,2167 1396,2142 1067.4,2142 1055.9,2167 		"/>
		<polygon fill="none" points="462.8,2084 168,2084 131.4,2104 435.3,2104 		"/>
		<polygon fill="none" points="1803.4,2294 1404,2294 1404,2334 1822.4,2334 		"/>
		<polygon fill="none" points="1396,2202 1396,2175 1052.1,2175 1039.1,2202 		"/>
		<polygon fill="none" points="1396,2242 1396,2210 1035.4,2210 1020.7,2242 		"/>
		<polygon fill="none" points="1812.3,2294 1831.2,2334 2248.1,2334 2210.3,2294 		"/>
		<polygon fill="none" points="1396,2334 1396,2294 996.5,2294 977.6,2334 		"/>
		<polygon fill="none" points="2326,2076 2617,2076 2584.4,2059 2301.5,2059 		"/>
		<polygon fill="none" points="1011.8,2242 1026.5,2210 667.4,2210 638,2242 		"/>
		<polygon fill="none" points="1058.6,2142 731.5,2142 708.4,2167 1047,2167 		"/>
		<polygon fill="none" points="1030.3,2202 1043.3,2175 700.9,2175 674.8,2202 		"/>
		<polygon fill="none" points="991.5,2286 1008.1,2250 630.5,2250 597.2,2286 		"/>
		<polygon fill="none" points="943.5,2388 965.1,2342 544.4,2342 501.2,2388 		"/>
		<polygon fill="none" points="1396,2342 973.9,2342 952.3,2388 1396,2388 		"/>
		<polygon fill="none" points="968.8,2334 987.7,2294 589.7,2294 551.9,2334 		"/>
		<polygon fill="none" points="1808.5,514 1791.9,550 2169.5,550 2202.8,514 		"/>
		<polygon fill="none" points="697.4,2167 720.5,2142 395.9,2142 361.2,2167 		"/>
		<polygon fill="none" points="781.8,2076 798.1,2059 512.2,2059 487.8,2076 		"/>
		<polygon fill="none" points="756,2104 774.3,2084 476.6,2084 449.1,2104 		"/>
		<polygon fill="none" points="728,2134 748.5,2112 437.9,2112 407.1,2134 		"/>
		<polygon fill="none" points="1997.1,2689 2579.9,2689 2501.9,2606 1958.1,2606 		"/>
		<polygon fill="none" points="1917.4,2519 2420.5,2519 2363.3,2457 1888.8,2457 		"/>
		<polygon fill="none" points="2309.7,2388 2749.5,2388 2684.7,2342 2266.5,2342 		"/>
		<polygon fill="none" points="1885.1,2449 2355.8,2449 2306.2,2396 1860.3,2396 		"/>
		<polygon fill="none" points="2259,2334 2673.5,2334 2616.7,2294 2221.2,2294 		"/>
		<polygon fill="none" points="2213.7,2286 2605.5,2286 2555.6,2250 2180.4,2250 		"/>
		<polygon fill="none" points="1396,2598 1396,2527 887.7,2527 854.4,2598 		"/>
		<polygon fill="none" points="1954.4,2598 2494.5,2598 2428,2527 1921.1,2527 		"/>
		<polygon fill="none" points="1396,2519 1396,2457 920,2457 891.4,2519 		"/>
		<polygon fill="none" points="1396,2449 1396,2396 948.6,2396 923.8,2449 		"/>
		<polygon fill="none" points="1912.3,2527 1404,2527 1404,2598 1945.6,2598 		"/>
		<polygon fill="none" points="805.6,2051 820.1,2035 545.3,2035 523.4,2051 		"/>
		<polygon fill="none" points="2364.7,2104 2668.6,2104 2632,2084 2337.2,2084 		"/>
		<polygon fill="none" points="2461.4,1993 2209.3,1993 2226.6,2005 2484.5,2005 		"/>
		<polygon fill="none" points="2182.7,1974 2198.1,1985 2446.5,1985 2425.9,1974 		"/>
		<polygon fill="none" points="2112.5,1924 2123.2,1932 2346.6,1932 2332.3,1924 		"/>
		<polygon fill="none" points="1940.4,1993 1952,2005 2212.9,2005 2195.5,1993 		"/>
		<polygon fill="none" points="2157.8,1956 2171.5,1966 2411,1966 2392.7,1956 		"/>
		<polygon fill="none" points="827.6,2027 840.5,2013 575.9,2013 556.5,2027 		"/>
		<polygon fill="none" points="2406.7,2134 2724.6,2134 2683.5,2112 2375.9,2112 		"/>
		<polygon fill="none" points="2173,2242 2544.4,2242 2500.3,2210 2143.6,2210 		"/>
		<polygon fill="none" points="1089.2,2076 1097.4,2059 809,2059 792.7,2076 		"/>
		<polygon fill="none" points="2452.6,2167 2785.8,2167 2739.6,2142 2417.9,2142 		"/>
		<polygon fill="none" points="2136.1,2202 2489.1,2202 2450,2175 2110.1,2175 		"/>
		<polygon fill="none" points="2134.4,1940 2146.6,1948 2377.8,1948 2361.6,1940 		"/>
		<polygon fill="none" points="1883,1932 2109.4,1932 2098.7,1924 1875.9,1924 		"/>
		<polygon fill="none" points="653.4,1948 665.6,1940 438.4,1940 422.2,1948 		"/>
		<polygon fill="none" points="453.4,1932 676.8,1932 687.5,1924 467.7,1924 		"/>
		<polygon fill="none" points="859.6,1993 604.5,1993 587.1,2005 848,2005 		"/>
		<polygon fill="none" points="601.9,1985 617.3,1974 374.1,1974 353.5,1985 		"/>
		<polygon fill="none" points="628.5,1966 642.2,1956 407.3,1956 389,1966 		"/>
		<polygon fill="none" points="1404,1932 1634.4,1932 1630.8,1924 1404,1924 		"/>
		<polygon fill="none" points="690.6,1932 917,1932 924.1,1924 701.3,1924 		"/>
		<polygon fill="none" points="1643.2,1932 1872.1,1932 1864.9,1924 1639.6,1924 		"/>
		<polygon fill="none" points="927.9,1932 1156.8,1932 1160.4,1924 935.1,1924 		"/>
		<polygon fill="none" points="1165.6,1932 1396,1932 1396,1924 1169.2,1924 		"/>
		<polygon fill="none" points="573.4,2005 590.7,1993 338.6,1993 315.5,2005 		"/>
		<polygon fill="none" points="2301.5,741 2584.4,741 2617,724 2326,724 		"/>
		<polygon fill="none" points="2337.2,716 2632,716 2668.6,696 2364.7,696 		"/>
		<polygon fill="none" points="2268.5,765 2540.4,765 2569.4,749 2290.3,749 		"/>
		<polygon fill="none" points="2739.6,658 2785.8,633 2452.6,633 2417.9,658 		"/>
		<polygon fill="none" points="2375.9,688 2683.5,688 2724.6,666 2406.7,666 		"/>
		<polygon fill="none" points="2237.9,787 2499.5,787 2525.4,773 2257.3,773 		"/>
		<polygon fill="none" points="2409.7,844 2641.3,844 2664.1,834 2427.9,834 		"/>
		<polygon fill="none" points="2349.3,876 2565.8,876 2583.7,868 2363.6,868 		"/>
		<polygon fill="none" points="2378.5,860 2602.4,860 2622.6,852 2394.7,852 		"/>
		<polygon fill="none" points="2727.2,807 2756.1,795 2501.5,795 2478.4,807 		"/>
		<polygon fill="none" points="2442.9,826 2682.8,826 2708.5,815 2463.4,815 		"/>
		<polygon fill="none" points="2110.1,625 2450,625 2489.1,598 2136.1,598 		"/>
		<polygon fill="none" points="1404,2606 1404,2689 1988.3,2689 1949.3,2606 		"/>
		<polygon fill="none" points="1949.3,194 1988.3,111 1404,111 1404,194 		"/>
		<polygon fill="none" points="2501.9,194 2579.9,111 1997.1,111 1958.1,194 		"/>
		<polygon fill="none" points="2143.6,590 2500.3,590 2544.4,558 2173,558 		"/>
		<polygon fill="none" points="1404,2396 1404,2449 1876.2,2449 1851.4,2396 		"/>
		<polygon fill="none" points="436.4,868 216.3,868 234.2,876 450.7,876 		"/>
		<polygon fill="none" points="1921.1,273 2428,273 2494.5,202 1954.4,202 		"/>
		<polygon fill="none" points="2180.4,550 2555.6,550 2605.5,514 2213.7,514 		"/>
		<polygon fill="none" points="2221.2,506 2616.7,506 2673.5,466 2259,466 		"/>
		<polygon fill="none" points="2684.7,458 2749.5,412 2309.7,412 2266.5,458 		"/>
		<polygon fill="none" points="1860.3,404 2306.2,404 2355.8,351 1885.1,351 		"/>
		<polygon fill="none" points="1888.8,343 2363.3,343 2420.5,281 1917.4,281 		"/>
		<polygon fill="none" points="1908.6,2519 1880,2457 1404,2457 1404,2519 		"/>
		<polygon fill="none" points="845.6,202 305.5,202 372,273 878.9,273 		"/>
		<polygon fill="none" points="802.9,111 220.1,111 298.1,194 841.9,194 		"/>
		<polygon fill="none" points="887.7,273 1396,273 1396,202 854.4,202 		"/>
		<polygon fill="none" points="914.9,351 444.2,351 493.8,404 939.7,404 		"/>
		<polygon fill="none" points="882.6,281 379.5,281 436.7,343 911.2,343 		"/>
		<polygon fill="none" points="1404,202 1404,273 1912.3,273 1945.6,202 		"/>
		<polygon fill="none" points="1404,458 1826.1,458 1847.7,412 1404,412 		"/>
		<polygon fill="none" points="1831.2,466 1812.3,506 2210.3,506 2248.1,466 		"/>
		<polygon fill="none" points="1856.5,412 1834.9,458 2255.6,458 2298.8,412 		"/>
		<polygon fill="none" points="490.3,412 50.5,412 115.3,458 533.5,458 		"/>
		<polygon fill="none" points="1404,281 1404,343 1880,343 1908.6,281 		"/>
		<polygon fill="none" points="1404,351 1404,404 1851.4,404 1876.2,351 		"/>
		<polygon fill="none" points="347.4,633 14.2,633 60.4,658 382.1,658 		"/>
		<polygon fill="none" points="542.7,773 274.6,773 300.5,787 562.1,787 		"/>
		<polygon fill="none" points="509.7,749 230.6,749 259.6,765 531.5,765 		"/>
		<polygon fill="none" points="298.5,795 43.9,795 72.8,807 321.6,807 		"/>
		<polygon fill="none" points="541,466 126.5,466 183.3,506 578.8,506 		"/>
		<polygon fill="none" points="474,724 183,724 215.6,741 498.5,741 		"/>
		<polygon fill="none" points="336.6,815 91.5,815 117.2,826 357.1,826 		"/>
		<polygon fill="none" points="372.1,834 135.9,834 158.7,844 390.3,844 		"/>
		<polygon fill="none" points="435.3,696 131.4,696 168,716 462.8,716 		"/>
		<polygon fill="none" points="627,558 255.6,558 299.7,590 656.4,590 		"/>
		<polygon fill="none" points="663.9,598 310.9,598 350,625 689.9,625 		"/>
		<polygon fill="none" points="405.3,852 177.4,852 197.6,860 421.5,860 		"/>
		<polygon fill="none" points="393.3,666 75.4,666 116.5,688 424.1,688 		"/>
		<polygon fill="none" points="586.3,514 194.5,514 244.4,550 619.6,550 		"/>
		<polygon fill="none" points="1122.3,2005 1128.1,1993 870.5,1993 859,2005 		"/>
		<polygon fill="none" points="1404,2013 1404,2027 1679.1,2027 1672.6,2013 		"/>
		<polygon fill="none" points="1681.4,2013 1687.9,2027 1961.5,2027 1948.5,2013 		"/>
		<polygon fill="none" points="1671.9,1993 1677.7,2005 1941,2005 1929.5,1993 		"/>
		<polygon fill="none" points="1691.6,2035 1698.9,2051 1983.5,2051 1968.9,2035 		"/>
		<polygon fill="none" points="1702,2076 1693.8,2059 1404,2059 1404,2076 		"/>
		<polygon fill="none" points="1404,2342 1404,2388 1847.7,2388 1826.1,2342 		"/>
		<polygon fill="none" points="1663,1974 1668.2,1985 1922,1985 1911.7,1974 		"/>
		<polygon fill="none" points="912.4,1948 1149,1948 1153.1,1940 920.5,1940 		"/>
		<polygon fill="none" points="1157.9,1948 1396,1948 1396,1940 1161.9,1940 		"/>
		<polygon fill="none" points="667.2,1948 901.4,1948 909.5,1940 679.4,1940 		"/>
		<polygon fill="none" points="1137,1974 888.3,1974 878,1985 1131.8,1985 		"/>
		<polygon fill="none" points="884.8,1966 893.9,1956 656,1956 642.3,1966 		"/>
		<polygon fill="none" points="1396,2051 1396,2035 1117.2,2035 1109.9,2051 		"/>
		<polygon fill="none" points="1101.1,2051 1108.4,2035 831.1,2035 816.5,2051 		"/>
		<polygon fill="none" points="1396,2076 1396,2059 1106.2,2059 1098,2076 		"/>
		<polygon fill="none" points="1396,2104 1396,2084 1094.3,2084 1085.2,2104 		"/>
		<polygon fill="none" points="1404,2035 1404,2051 1690.1,2051 1682.8,2035 		"/>
		<polygon fill="none" points="1112.1,2027 1118.6,2013 851.5,2013 838.5,2027 		"/>
		<polygon fill="none" points="1396,2027 1396,2013 1127.4,2013 1120.9,2027 		"/>
		<polygon fill="none" points="1396,2005 1396,1993 1136.9,1993 1131.2,2005 		"/>
		<polygon fill="none" points="1404,1974 1404,1985 1659.3,1985 1654.2,1974 		"/>
		<polygon fill="none" points="1705.7,2084 1404,2084 1404,2104 1714.8,2104 		"/>
		<polygon fill="none" points="1404,1993 1404,2005 1668.8,2005 1663.1,1993 		"/>
		<polygon fill="none" points="1702.6,2059 1710.8,2076 2007.3,2076 1991,2059 		"/>
		<polygon fill="none" points="1396,1985 1396,1974 1145.8,1974 1140.7,1985 		"/>
		<polygon fill="none" points="2040.5,2112 1727.4,2112 1737.7,2134 2061.1,2134 		"/>
		<polygon fill="none" points="1714.5,2084 1723.7,2104 2033,2104 2014.7,2084 		"/>
		<polygon fill="none" points="867,1985 877.3,1974 631.1,1974 615.7,1985 		"/>
		<polygon fill="none" points="1404,2142 1404,2167 1744.1,2167 1732.6,2142 		"/>
		<polygon fill="none" points="1404,2112 1404,2134 1728.9,2134 1718.6,2112 		"/>
		<polygon fill="none" points="1396,1956 1154.1,1956 1149.6,1966 1396,1966 		"/>
		<polygon fill="none" points="1404,2175 1404,2202 1760.9,2202 1747.9,2175 		"/>
		<polygon fill="none" points="1404,1966 1650.4,1966 1645.9,1956 1404,1956 		"/>
		<polygon fill="none" points="895.8,1966 1140.7,1966 1145.3,1956 904.9,1956 		"/>
		<polygon fill="none" points="1895.1,1956 1654.7,1956 1659.3,1966 1904.2,1966 		"/>
		<polygon fill="none" points="1799.7,2286 1783.1,2250 1404,2250 1404,2286 		"/>
		<polygon fill="none" points="1906.1,1956 1915.2,1966 2157.7,1966 2144,1956 		"/>
		<polygon fill="none" points="2168.9,1974 1922.7,1974 1933,1985 2184.3,1985 		"/>
		<polygon fill="none" points="1404,2210 1404,2242 1779.3,2242 1764.6,2210 		"/>
		<polygon fill="none" points="1890.5,1940 1898.6,1948 2132.8,1948 2120.6,1940 		"/>
		<polygon fill="none" points="1651,1948 1887.6,1948 1879.5,1940 1646.9,1940 		"/>
		<polygon fill="none" points="1404,1948 1642.1,1948 1638.1,1940 1404,1940 		"/>
		<path fill="#ED00E5" d="M1992,2697l48,103h4.4l3.6-1.8l-47.2-101.2h586.5l96,103h5.5l2.9-2.8l-93.5-100.2H2800v-8h-209.2l-78-83
			H2800v-8h-294.6l-66.5-71H2800v-8h-368.6l-57.2-62H2800v-8h-433.2l-49.6-53h443.5l39.3,28.3v-9.8l-25.5-18.5h25.5v-8h-36.8
			l-64.8-46H2800v-8h-112.8l-56.8-40H2800v-8h-180.7l-49.9-36H2800v-8h-241.9l-44.1-32h286v-8h-297.2l-39-27H2800v-9.9l-43.5-23.1
			h43.5v-8h-58.4l-41.1-22h99.5v-8h-114.5l-36.6-20H2800v-8h-166l-32.6-17H2800v-8h-213.6l-29.1-16H2800v-8h-257.6l-25.9-14h258.4
			l25.2,11.1v-8.7l-4.9-2.4h4.9v-8h-23.6l-28.9-12h52.5v-8h-71.1l-25.7-11h96.8v-8h-115.5l-22.8-10H2800v-8h-157l-20.2-8H2800v-8
			h-196l-17.9-8h213.1l0.7,0.1v-4.2v0v-3.9H0v3.9v0v4.2l0.7-0.1h213.1l-17.9,8H0v8h177.3l-20.2,8H0v8h138.4l-22.8,10H0v8h96.8
			l-25.7,11H0v8h52.5l-28.9,12H0v8h4.9l-4.9,2.4v8.7l25.2-11.1h258.4l-25.9,14H0v8h242.7l-29.1,16H0v8h198.7l-32.6,17H0v8h151.1
			l-36.6,20H0v8h99.5l-41.1,22H0v8h43.5L0,2165.1v9.9h336.2l-39,27H0v8h286l-44.1,32H0v8h230.7l-49.9,36H0v8h169.5l-56.8,40H0v8
			h101.5l-64.8,46H0v8h25.5L0,2414.5v9.8l39.3-28.3h443.5l-49.6,53H0v8h425.8l-57.2,62H0v8h361.1l-66.5,71H0v8h287.1l-78,83H0v8
			h201.7l-93.5,100.2l2.9,2.8h5.5l96-103h586.5l-47.2,101.2l3.6,1.8h4.4l48-103h588v103h8v-103H1992z M1404,2689v-83h545.3l39,83
			H1404z M1404,2449v-53h447.4l24.8,53H1404z M1880,2457l28.6,62H1404v-62H1880z M1404,2388v-46h422.1l21.6,46H1404z M1404,2242v-32
			h360.6l14.7,32H1404z M1783.1,2250l16.6,36H1404v-36H1783.1z M1404,2202v-27h343.9l13,27H1404z M1404,2167v-25h328.6l11.6,25H1404
			z M1404,2134v-22h314.6l10.3,22H1404z M1154.1,1956H1396v10h-246.4L1154.1,1956z M1140.7,1966h-245l9.1-10h240.4L1140.7,1966z
			 M1650.4,1966H1404v-10h241.9L1650.4,1966z M1654.7,1956h240.4l9.1,10h-245L1654.7,1956z M1404,2051v-16h278.8l7.3,16H1404z
			 M1693.8,2059l8.2,17h-298v-17H1693.8z M1404,2027v-14h268.6l6.5,14H1404z M1404,2005v-12h259.1l5.8,12H1404z M1404,1985v-11
			h250.2l5.1,11H1404z M1396,1974v11h-255.3l5.1-11H1396z M1396,1993v12h-264.8l5.8-12H1396z M1396,2013v14h-275.1l6.5-14H1396z
			 M1396,2035v16h-286.1l7.3-16H1396z M1396,2059v17h-298l8.2-17H1396z M1396,2084v20h-310.8l9.1-20H1396z M1404,2084h301.7l9.1,20
			H1404V2084z M1727.4,2112h313.1l20.5,22h-323.4L1727.4,2112z M1723.7,2104l-9.2-20h300.2l18.3,20H1723.7z M1710.8,2076l-8.2-17
			H1991l16.3,17H1710.8z M1698.9,2051l-7.3-16h277.3l14.5,16H1698.9z M1687.9,2027l-6.5-14h267.1l13,14H1687.9z M1677.7,2005
			l-5.8-12h257.6l11.6,12H1677.7z M1668.2,1985l-5.1-11h248.7l10.3,11H1668.2z M1922.7,1974h246.2l15.4,11H1933L1922.7,1974z
			 M1915.2,1966l-9.1-10H2144l13.7,10H1915.2z M1898.6,1948l-8.1-8h230.2l12.1,8H1898.6z M1887.6,1948H1651l-4-8h232.6L1887.6,1948z
			 M1642.1,1948H1404v-8h234.1L1642.1,1948z M1396,1948h-238.1l4-8H1396V1948z M1149,1948H912.4l8.1-8h232.6L1149,1948z M901.4,1948
			H667.2l12.1-8h230.2L901.4,1948z M893.9,1956l-9.1,10H642.3l13.7-10H893.9z M877.3,1974l-10.3,11H615.7l15.4-11H877.3z
			 M888.3,1974H1137l-5.1,11H878L888.3,1974z M1128.1,1993l-5.8,12H859l11.6-12H1128.1z M1118.6,2013l-6.5,14H838.5l13-14H1118.6z
			 M1108.4,2035l-7.3,16H816.5l14.5-16H1108.4z M1097.4,2059l-8.2,17H792.7l16.3-17H1097.4z M1085.5,2084l-9.1,20H767l18.3-20
			H1085.5z M1072.6,2112l-10.3,22H738.9l20.5-22H1072.6z M1081.4,2112H1396v22h-324.9L1081.4,2112z M1396,2142v25h-340.1l11.6-25
			H1396z M1396,2175v27h-356.9l13-27H1396z M1396,2210v32h-375.3l14.7-32H1396z M1396,2250v36h-395.7l16.6-36H1396z M1396,2294v40
			H977.6l18.9-40H1396z M1404,2294h399.4l18.9,40H1404V2294z M1834.9,2342h420.6l43.2,46h-442.2L1834.9,2342z M1831.2,2334l-18.9-40
			h398l37.8,40H1831.2z M1808.5,2286l-16.6-36h377.6l33.3,36H1808.5z M1788.2,2242l-14.7-32h359.2l29.4,32H1788.2z M1769.7,2202
			l-13-27h342.4l26,27H1769.7z M1753,2167l-11.6-25h327.1l23.1,25H1753z M2079.5,2142h324.6l34.7,25h-336.2L2079.5,2142z M2072,2134
			l-20.5-22h310.6l30.8,22H2072z M2044,2104l-18.3-20h297.8l27.5,20H2044z M2018.2,2076l-16.3-17h285.9l24.5,17H2018.2z
			 M1994.4,2051l-14.5-16h274.8l21.8,16H1994.4z M1972.4,2027l-13-14h264.6l19.5,14H1972.4z M1952,2005l-11.6-12h255.1l17.3,12H1952
			z M2209.3,1993h252.1l23.1,12h-257.9L2209.3,1993z M2198.1,1985l-15.4-11h243.2l20.6,11H2198.1z M2171.5,1966l-13.7-10h234.9
			l18.3,10H2171.5z M2146.6,1948l-12.1-8h227.1l16.2,8H2146.6z M2123.2,1932l-10.7-8h219.8l14.3,8H2123.2z M2109.4,1932H1883l-7.1-8
			h222.8L2109.4,1932z M1872.1,1932h-228.9l-3.6-8h225.3L1872.1,1932z M1634.4,1932H1404v-8h226.8L1634.4,1932z M1396,1932h-230.4
			l3.6-8H1396V1932z M1156.8,1932H927.9l7.1-8h225.3L1156.8,1932z M917,1932H690.6l10.7-8h222.8L917,1932z M676.8,1932H453.4l14.3-8
			h219.8L676.8,1932z M665.6,1940l-12.1,8H422.2l16.2-8H665.6z M642.2,1956l-13.7,10H389l18.3-10H642.2z M617.3,1974l-15.4,11H353.5
			l20.6-11H617.3z M590.7,1993l-17.3,12H315.5l23.1-12H590.7z M604.5,1993h255.1l-11.6,12H587.1L604.5,1993z M840.5,2013l-13,14
			H556.5l19.5-14H840.5z M820.1,2035l-14.5,16H523.4l21.8-16H820.1z M798.1,2059l-16.3,17h-294l24.5-17H798.1z M774.3,2084l-18.3,20
			H449.1l27.5-20H774.3z M748.5,2112l-20.5,22H407.1l30.8-22H748.5z M720.5,2142l-23.1,25H361.2l34.7-25H720.5z M731.5,2142h327.1
			l-11.6,25H708.4L731.5,2142z M1043.3,2175l-13,27H674.8l26-27H1043.3z M1026.5,2210l-14.7,32H638l29.4-32H1026.5z M1008.1,2250
			l-16.6,36H597.2l33.3-36H1008.1z M987.7,2294l-18.9,40H551.9l37.8-40H987.7z M965.1,2342l-21.6,46H501.2l43.2-46H965.1z
			 M973.9,2342H1396v46H952.3L973.9,2342z M1396,2396v53H923.8l24.8-53H1396z M1396,2457v62H891.4l28.6-62H1396z M1396,2527v71
			H854.4l33.3-71H1396z M1404,2527h508.3l33.3,71H1404V2527z M2579.9,2689h-582.8l-39-83h543.8L2579.9,2689z M2494.5,2598h-540.1
			l-33.3-71H2428L2494.5,2598z M2420.5,2519h-503.1l-28.6-62h474.5L2420.5,2519z M2355.8,2449h-470.8l-24.8-53h446L2355.8,2449z
			 M2749.5,2388h-439.8l-43.2-46h418.2L2749.5,2388z M2673.5,2334H2259l-37.8-40h395.5L2673.5,2334z M2605.5,2286h-391.8l-33.3-36
			h375.1L2605.5,2286z M2544.4,2242H2173l-29.4-32h356.7L2544.4,2242z M2489.1,2202h-353l-26-27H2450L2489.1,2202z M2785.8,2167
			h-333.2l-34.7-25h321.6L2785.8,2167z M2724.6,2134h-317.9l-30.8-22h307.6L2724.6,2134z M2668.6,2104h-303.9l-27.5-20H2632
			L2668.6,2104z M2617,2076h-291l-24.5-17h282.9L2617,2076z M2569.4,2051h-279.1l-21.8-16h271.8L2569.4,2051z M2525.4,2027h-268.1
			l-19.5-14h261.6L2525.4,2027z M2756.1,2005h-254.6l-23.1-12h248.8L2756.1,2005z M2708.5,1985h-245.1l-20.6-11h240L2708.5,1985z
			 M2664.1,1966h-236.2l-18.3-10h231.7L2664.1,1966z M2622.6,1948h-227.9l-16.2-8h223.9L2622.6,1948z M2583.7,1932h-220.1l-14.3-8
			h216.6L2583.7,1932z M234.2,1924h216.6l-14.3,8H216.3L234.2,1924z M197.6,1940h223.9l-16.2,8H177.4L197.6,1940z M158.7,1956h231.7
			l-18.3,10H135.9L158.7,1956z M117.2,1974h240l-20.6,11H91.5L117.2,1974z M43.9,2005l28.9-12h248.8l-23.1,12H43.9z M300.5,2013
			h261.6l-19.5,14H274.6L300.5,2013z M259.6,2035h271.8l-21.8,16H230.6L259.6,2035z M215.6,2059h282.9l-24.5,17H183L215.6,2059z
			 M168,2084h294.7l-27.5,20H131.4L168,2084z M116.5,2112h307.6l-30.8,22H75.4L116.5,2112z M14.2,2167l46.2-25h321.6l-34.7,25H14.2z
			 M350,2175h339.9l-26,27h-353L350,2175z M299.7,2210h356.7l-29.4,32H255.6L299.7,2210z M244.4,2250h375.1l-33.3,36H194.5
			L244.4,2250z M183.3,2294h395.5l-37.8,40H126.5L183.3,2294z M50.5,2388l64.8-46h418.2l-43.2,46H50.5z M493.8,2396h446l-24.8,53
			H444.2L493.8,2396z M436.7,2457h474.5l-28.6,62H379.5L436.7,2457z M372,2527h506.8l-33.3,71H305.5L372,2527z M220.1,2689l78-83
			h543.8l-39,83H220.1z M811.7,2689l39-83H1396v83H811.7z"/>
		<path fill="#ED00E5" d="M808,103L760,0h-4.4l-3.6,1.8L799.2,103H212.6l-96-103h-5.5l-2.9,2.8L201.7,103H0v8h209.2l78,83H0v8h294.6
			l66.5,71H0v8h368.6l57.2,62H0v8h433.2l49.6,53H39.3L0,375.7v9.8L25.5,404H0v8h36.8l64.8,46H0v8h112.8l56.8,40H0v8h180.7l49.9,36H0
			v8h241.9l44.1,32H0v8h297.2l39,27H0v9.9L43.5,658H0v8h58.4l41.1,22H0v8h114.5l36.6,20H0v8h166l32.6,17H0v8h213.6l29.1,16H0v8
			h257.6l25.9,14H25.2L0,775.9v8.7l4.9,2.4H0v8h23.6l28.9,12H0v8h71.1l25.7,11H0v8h115.5l22.8,10H0v8h157l20.2,8H0v8h196l17.9,8H0.7
			L0,875.9v4.2v0v3.9h2800v-3.9v0v-4.2l-0.7,0.1h-213.1l17.9-8h196v-8h-177.3l20.2-8h157v-8h-138.4l22.8-10H2800v-8h-96.8l25.7-11
			h71.1v-8h-52.5l28.9-12h23.6v-8h-4.9l4.9-2.4v-8.7l-25.2,11.1h-258.4l25.9-14H2800v-8h-242.7l29.1-16H2800v-8h-198.7l32.6-17h166
			v-8h-151.1l36.6-20H2800v-8h-99.5l41.1-22h58.4v-8h-43.5l43.5-23.1V625h-336.2l39-27H2800v-8h-286l44.1-32H2800v-8h-230.7l49.9-36
			H2800v-8h-169.5l56.8-40H2800v-8h-101.5l64.8-46h36.8v-8h-25.5l25.5-18.5v-9.8l-39.3,28.3h-443.5l49.6-53H2800v-8h-425.8l57.2-62
			H2800v-8h-361.1l66.5-71H2800v-8h-287.1l78-83H2800v-8h-201.7l93.5-100.2l-2.9-2.8h-5.5l-96,103h-586.5l47.2-101.2l-3.6-1.8h-4.4
			l-48,103h-588V0h-8v103H808z M1396,111v83H850.7l-39-83H1396z M1396,351v53H948.6l-24.8-53H1396z M920,343l-28.6-62H1396v62H920z
			 M1396,412v46H973.9l-21.6-46H1396z M1396,558v32h-360.6l-14.7-32H1396z M1016.9,550l-16.6-36H1396v36H1016.9z M1396,598v27
			h-343.9l-13-27H1396z M1396,633v25h-328.6l-11.6-25H1396z M1396,666v22h-314.6l-10.3-22H1396z M1645.9,844H1404v-10h246.4
			L1645.9,844z M1659.3,834h245l-9.1,10h-240.4L1659.3,834z M1149.6,834H1396v10h-241.9L1149.6,834z M1145.3,844H904.9l-9.1-10h245
			L1145.3,844z M1396,749v16h-278.8l-7.3-16H1396z M1106.2,741l-8.2-17h298v17H1106.2z M1396,773v14h-268.6l-6.5-14H1396z M1396,795
			v12h-259.1l-5.8-12H1396z M1396,815v11h-250.2l-5.1-11H1396z M1404,826v-11h255.3l-5.1,11H1404z M1404,807v-12h264.8l-5.8,12H1404
			z M1404,787v-14h275.1l-6.5,14H1404z M1404,765v-16h286.1l-7.3,16H1404z M1404,741v-17h298l-8.2,17H1404z M1404,716v-20h310.8
			l-9.1,20H1404z M1396,716h-301.7l-9.2-20H1396V716z M1072.6,688H759.5l-20.5-22h323.4L1072.6,688z M1076.3,696l9.2,20H785.3
			L767,696H1076.3z M1089.2,724l8.2,17H809l-16.3-17H1089.2z M1101.1,749l7.3,16H831.1l-14.5-16H1101.1z M1112.1,773l6.5,14H851.5
			l-13-14H1112.1z M1122.3,795l5.8,12H870.5L859,795H1122.3z M1131.8,815l5.1,11H888.3L878,815H1131.8z M877.3,826H631.1l-15.4-11
			H867L877.3,826z M884.8,834l9.1,10H656l-13.7-10H884.8z M901.4,852l8.1,8H679.4l-12.1-8H901.4z M912.4,852H1149l4,8H920.5
			L912.4,852z M1157.9,852H1396v8h-234.1L1157.9,852z M1404,852h238.1l-4,8H1404V852z M1651,852h236.7l-8.1,8h-232.6L1651,852z
			 M1898.6,852h234.2l-12.1,8h-230.2L1898.6,852z M1906.1,844l9.1-10h242.5l-13.7,10H1906.1z M1922.7,826l10.3-11h251.4l-15.4,11
			H1922.7z M1911.7,826H1663l5.1-11H1922L1911.7,826z M1671.9,807l5.8-12H1941l-11.6,12H1671.9z M1681.4,787l6.5-14h273.6l-13,14
			H1681.4z M1691.6,765l7.3-16h284.6l-14.5,16H1691.6z M1702.6,741l8.2-17h296.5l-16.3,17H1702.6z M1714.5,716l9.2-20H2033l-18.3,20
			H1714.5z M1727.4,688l10.3-22h323.4l-20.5,22H1727.4z M1718.6,688H1404v-22h324.9L1718.6,688z M1404,658v-25h340.1l-11.6,25H1404z
			 M1404,625v-27h356.9l-13,27H1404z M1404,590v-32h375.3l-14.7,32H1404z M1404,550v-36h395.7l-16.6,36H1404z M1404,506v-40h418.4
			l-18.9,40H1404z M1396,506H996.5l-18.9-40H1396V506z M965.1,458H544.4l-43.2-46h442.2L965.1,458z M968.8,466l18.9,40h-398
			l-37.8-40H968.8z M991.5,514l16.6,36H630.5l-33.3-36H991.5z M1011.8,558l14.7,32H667.4L638,558H1011.8z M1030.3,598l13,27H700.9
			l-26-27H1030.3z M1047,633l11.6,25H731.5l-23.1-25H1047z M720.5,658H395.9l-34.7-25h336.2L720.5,658z M728,666l20.5,22H437.9
			l-30.8-22H728z M756,696l18.3,20H476.6l-27.5-20H756z M781.8,724l16.3,17H512.2l-24.5-17H781.8z M805.6,749l14.5,16H545.3
			l-21.8-16H805.6z M827.6,773l13,14H575.9l-19.5-14H827.6z M848,795l11.6,12H604.5l-17.3-12H848z M590.7,807H338.6l-23.1-12h257.9
			L590.7,807z M601.9,815l15.4,11H374.1l-20.6-11H601.9z M628.5,834l13.7,10H407.3L389,834H628.5z M653.4,852l12.1,8H438.4l-16.2-8
			H653.4z M676.8,868l10.7,8H467.7l-14.3-8H676.8z M690.6,868H917l7.1,8H701.3L690.6,868z M927.9,868h228.9l3.6,8H935.1L927.9,868z
			 M1165.6,868H1396v8h-226.8L1165.6,868z M1404,868h230.4l-3.6,8H1404V868z M1643.2,868h228.9l-7.1,8h-225.3L1643.2,868z M1883,868
			h226.4l-10.7,8h-222.8L1883,868z M2123.2,868h223.4l-14.3,8h-219.8L2123.2,868z M2134.4,860l12.1-8h231.2l-16.2,8H2134.4z
			 M2157.8,844l13.7-10H2411l-18.3,10H2157.8z M2182.7,826l15.4-11h248.4l-20.6,11H2182.7z M2209.3,807l17.3-12h257.9l-23.1,12
			H2209.3z M2195.5,807h-255.1l11.6-12h260.9L2195.5,807z M1959.5,787l13-14h271.1l-19.5,14H1959.5z M1979.9,765l14.5-16h282.1
			l-21.8,16H1979.9z M2001.9,741l16.3-17h294l-24.5,17H2001.9z M2025.7,716l18.3-20h306.9l-27.5,20H2025.7z M2051.5,688l20.5-22
			h320.9l-30.8,22H2051.5z M2079.5,658l23.1-25h336.2l-34.7,25H2079.5z M2068.5,658h-327.1l11.6-25h338.7L2068.5,658z M1756.7,625
			l13-27h355.4l-26,27H1756.7z M1773.5,590l14.7-32H2162l-29.4,32H1773.5z M1791.9,550l16.6-36h394.2l-33.3,36H1791.9z M1812.3,506
			l18.9-40h416.9l-37.8,40H1812.3z M1834.9,458l21.6-46h442.2l-43.2,46H1834.9z M1826.1,458H1404v-46h443.7L1826.1,458z M1404,404
			v-53h472.2l-24.8,53H1404z M1404,343v-62h504.6l-28.6,62H1404z M1404,273v-71h541.6l-33.3,71H1404z M1396,273H887.7l-33.3-71H1396
			V273z M220.1,111h582.8l39,83H298.1L220.1,111z M305.5,202h540.1l33.3,71H372L305.5,202z M379.5,281h503.1l28.6,62H436.7
			L379.5,281z M444.2,351h470.7l24.8,53h-446L444.2,351z M50.5,412h439.8l43.2,46H115.3L50.5,412z M126.5,466H541l37.8,40H183.3
			L126.5,466z M194.5,514h391.8l33.3,36H244.4L194.5,514z M255.6,558H627l29.4,32H299.7L255.6,558z M310.9,598h353l26,27H350
			L310.9,598z M14.2,633h333.2l34.7,25H60.4L14.2,633z M75.4,666h317.9l30.8,22H116.5L75.4,666z M131.4,696h303.9l27.5,20H168
			L131.4,696z M183,724h291l24.5,17H215.6L183,724z M230.6,749h279.1l21.8,16H259.6L230.6,749z M274.6,773h268.1l19.5,14H300.5
			L274.6,773z M43.9,795h254.6l23.1,12H72.8L43.9,795z M91.5,815h245.1l20.6,11h-240L91.5,815z M135.9,834h236.2l18.3,10H158.7
			L135.9,834z M177.4,852h227.9l16.2,8H197.6L177.4,852z M216.3,868h220.1l14.3,8H234.2L216.3,868z M2565.8,876h-216.6l14.3-8h220.1
			L2565.8,876z M2602.4,860h-223.9l16.2-8h227.9L2602.4,860z M2641.3,844h-231.7l18.3-10h236.2L2641.3,844z M2682.8,826h-240
			l20.6-11h245.1L2682.8,826z M2756.1,795l-28.9,12h-248.8l23.1-12H2756.1z M2499.5,787h-261.6l19.5-14h268.1L2499.5,787z
			 M2540.4,765h-271.8l21.8-16h279.1L2540.4,765z M2584.4,741h-282.9l24.5-17h291L2584.4,741z M2632,716h-294.7l27.5-20h303.9
			L2632,716z M2683.5,688h-307.6l30.8-22h317.9L2683.5,688z M2785.8,633l-46.2,25h-321.6l34.7-25H2785.8z M2450,625h-339.9l26-27
			h353L2450,625z M2500.3,590h-356.7l29.4-32h371.4L2500.3,590z M2555.6,550h-375.1l33.3-36h391.8L2555.6,550z M2616.7,506h-395.5
			l37.8-40h414.4L2616.7,506z M2749.5,412l-64.8,46h-418.2l43.2-46H2749.5z M2306.2,404h-446l24.8-53h470.7L2306.2,404z M2363.3,343
			h-474.5l28.6-62h503.1L2363.3,343z M2428,273h-506.8l33.3-71h540.1L2428,273z M2579.9,111l-78,83h-543.8l39-83H2579.9z
			 M1988.3,111l-39,83H1404v-83H1988.3z"/>
	</g>
</g>
<g id="STAR">
	<g>
		<g>
			<polygon fill="#FFFFFF" points="2755.1,2478.2 2762.2,2476.7 2755.1,2475.2 2753.7,2468.2 2752.2,2475.2 2745.2,2476.7 
				2752.2,2478.2 2753.7,2485.2 			"/>
			<polygon fill="#FFFFFF" points="2753.7,2478.1 2757.9,2480.9 2755.1,2476.7 2757.9,2472.4 2753.7,2475.2 2749.4,2472.4 
				2752.2,2476.7 2749.4,2480.9 			"/>
		</g>
		<g>
			<polygon fill="#FFFFFF" points="2611.9,2488.9 2619.1,2487.4 2611.9,2485.8 2610.4,2478.6 2608.9,2485.8 2601.7,2487.4 
				2608.9,2488.9 2610.4,2496.1 			"/>
			<polygon fill="#FFFFFF" points="2610.4,2488.9 2614.8,2491.7 2611.9,2487.4 2614.8,2483 2610.4,2485.9 2606,2483 2608.9,2487.4 
				2606,2491.7 			"/>
		</g>
		<g>
			<polygon fill="#FFFFFF" points="2479.2,2657.6 2486.2,2656.1 2479.2,2654.6 2477.7,2647.6 2476.2,2654.6 2469.3,2656.1 
				2476.2,2657.6 2477.7,2664.5 			"/>
			<polygon fill="#FFFFFF" points="2477.7,2657.5 2481.9,2660.3 2479.2,2656.1 2481.9,2651.9 2477.7,2654.6 2473.5,2651.9 
				2476.2,2656.1 2473.5,2660.3 			"/>
		</g>
		<g>
			<polygon fill="#FFFFFF" points="2308.3,2430.2 2318.7,2428 2308.3,2425.8 2306.2,2415.4 2304,2425.8 2293.6,2428 2304,2430.2 
				2306.2,2440.6 			"/>
			<polygon fill="#FFFFFF" points="2306.2,2430.2 2312.4,2434.2 2308.3,2428 2312.4,2421.7 2306.2,2425.8 2299.9,2421.7 2304,2428 
				2299.9,2434.2 			"/>
		</g>
		<g>
			<polygon fill="#FFFFFF" points="2168.8,2347 2176.9,2345.3 2168.8,2343.6 2167.1,2335.5 2165.4,2343.6 2157.3,2345.3 
				2165.4,2347 2167.1,2355.1 			"/>
			<polygon fill="#FFFFFF" points="2167.1,2347 2172,2350.2 2168.8,2345.3 2172,2340.4 2167.1,2343.6 2162.2,2340.4 2165.4,2345.3 
				2162.2,2350.2 			"/>
		</g>
		<g>
			<polygon fill="#FFFFFF" points="1995.7,2458.4 2006.3,2456.2 1995.7,2454 1993.5,2443.4 1991.3,2454 1980.7,2456.2 
				1991.3,2458.4 1993.5,2469 			"/>
			<polygon fill="#FFFFFF" points="1993.5,2458.4 1999.9,2462.6 1995.7,2456.2 1999.9,2449.8 1993.5,2454 1987.1,2449.8 
				1991.3,2456.2 1987.1,2462.6 			"/>
		</g>
		<g>
			<polygon fill="#FFFFFF" points="1836.4,2616.1 1842,2615 1836.4,2613.8 1835.2,2608.1 1834,2613.8 1828.4,2615 1834,2616.1 
				1835.2,2621.8 			"/>
			<polygon fill="#FFFFFF" points="1835.2,2616.1 1838.6,2618.4 1836.4,2615 1838.6,2611.6 1835.2,2613.8 1831.8,2611.6 1834,2615 
				1831.8,2618.4 			"/>
		</g>
		<g>
			<polygon fill="#FFFFFF" points="1665.3,2527 1670.8,2525.8 1665.3,2524.7 1664.1,2519.2 1663,2524.7 1657.5,2525.8 1663,2527 
				1664.1,2532.4 			"/>
			<polygon fill="#FFFFFF" points="1664.1,2527 1667.4,2529.1 1665.3,2525.8 1667.4,2522.5 1664.1,2524.7 1660.8,2522.5 
				1663,2525.8 1660.8,2529.1 			"/>
		</g>
		<g>
			<polygon fill="#FFFFFF" points="1532.9,2607 1542.8,2604.9 1532.9,2602.8 1530.8,2592.9 1528.8,2602.8 1518.9,2604.9 
				1528.8,2607 1530.8,2616.9 			"/>
			<polygon fill="#FFFFFF" points="1530.8,2607 1536.8,2610.9 1532.9,2604.9 1536.8,2599 1530.8,2602.9 1524.9,2599 1528.8,2604.9 
				1524.9,2610.9 			"/>
		</g>
		<g>
			<polygon fill="#FFFFFF" points="1358.9,2483.6 1369.5,2481.3 1358.9,2479.1 1356.7,2468.5 1354.5,2479.1 1343.9,2481.3 
				1354.5,2483.6 1356.7,2494.2 			"/>
			<polygon fill="#FFFFFF" points="1356.7,2483.6 1363.1,2487.7 1358.9,2481.3 1363.1,2474.9 1356.7,2479.1 1350.3,2474.9 
				1354.5,2481.3 1350.3,2487.7 			"/>
		</g>
		<g>
			<polygon fill="#FFFFFF" points="1176.8,2586.3 1186.7,2584.2 1176.8,2582.2 1174.8,2572.3 1172.7,2582.2 1162.8,2584.2 
				1172.7,2586.3 1174.8,2596.2 			"/>
			<polygon fill="#FFFFFF" points="1174.8,2586.3 1180.7,2590.2 1176.8,2584.2 1180.7,2578.3 1174.8,2582.2 1168.8,2578.3 
				1172.7,2584.2 1168.8,2590.2 			"/>
		</g>
		<g>
			<polygon fill="#FFFFFF" points="993.6,2578.8 1003.8,2576.6 993.6,2574.5 991.4,2564.3 989.3,2574.5 979.1,2576.6 989.3,2578.8 
				991.4,2589 			"/>
			<polygon fill="#FFFFFF" points="991.4,2578.8 997.6,2582.8 993.6,2576.6 997.6,2570.5 991.4,2574.5 985.3,2570.5 989.3,2576.6 
				985.3,2582.8 			"/>
		</g>
		<g>
			<polygon fill="#FFFFFF" points="828.7,2471.8 835,2470.4 828.7,2469.1 827.4,2462.8 826,2469.1 819.8,2470.4 826,2471.8 
				827.4,2478 			"/>
			<polygon fill="#FFFFFF" points="827.4,2471.7 831.2,2474.2 828.7,2470.4 831.2,2466.6 827.4,2469.1 823.6,2466.6 826,2470.4 
				823.6,2474.2 			"/>
		</g>
		<g>
			<polygon fill="#FFFFFF" points="677.3,2587.9 687,2585.8 677.3,2583.8 675.3,2574.2 673.3,2583.8 663.6,2585.8 673.3,2587.9 
				675.3,2597.5 			"/>
			<polygon fill="#FFFFFF" points="675.3,2587.9 681.1,2591.6 677.3,2585.8 681.1,2580 675.3,2583.8 669.5,2580 673.3,2585.8 
				669.5,2591.6 			"/>
		</g>
		<g>
			<polygon fill="#FFFFFF" points="589.3,2256 595.8,2254.6 589.3,2253.2 587.9,2246.7 586.5,2253.2 580.1,2254.6 586.5,2256 
				587.9,2262.4 			"/>
			<polygon fill="#FFFFFF" points="587.9,2256 591.8,2258.5 589.3,2254.6 591.8,2250.7 587.9,2253.2 584,2250.7 586.6,2254.6 
				584,2258.5 			"/>
		</g>
		<g>
			<polygon fill="#FFFFFF" points="421.9,2494.6 430.4,2492.8 421.9,2491 420,2482.4 418.2,2491 409.7,2492.8 418.2,2494.6 
				420,2503.2 			"/>
			<polygon fill="#FFFFFF" points="420,2494.6 425.2,2498 421.8,2492.8 425.2,2487.6 420,2491 414.9,2487.6 418.2,2492.8 
				414.9,2498 			"/>
		</g>
		<g>
			<polygon fill="#FFFFFF" points="262,2438.1 272.5,2435.9 262,2433.6 259.8,2423.2 257.6,2433.6 247.1,2435.9 257.6,2438.1 
				259.8,2448.5 			"/>
			<polygon fill="#FFFFFF" points="259.8,2438.1 266.1,2442.2 262,2435.9 266.1,2429.5 259.8,2433.7 253.5,2429.5 257.6,2435.9 
				253.5,2442.2 			"/>
		</g>
		<g>
			<polygon fill="#FFFFFF" points="117.7,2383.7 123.4,2382.5 117.7,2381.3 116.5,2375.6 115.3,2381.3 109.6,2382.5 115.3,2383.7 
				116.5,2389.4 			"/>
			<polygon fill="#FFFFFF" points="116.5,2383.7 119.9,2385.9 117.7,2382.5 119.9,2379.1 116.5,2381.3 113.1,2379.1 115.3,2382.5 
				113.1,2385.9 			"/>
		</g>
		<g>
			<polygon fill="#FFFFFF" points="235.1,1807 243.7,1805.2 235.1,1803.4 233.3,1794.8 231.5,1803.4 222.9,1805.2 231.5,1807 
				233.3,1815.6 			"/>
			<polygon fill="#FFFFFF" points="233.3,1807 238.5,1810.4 235.1,1805.2 238.5,1800 233.3,1803.4 228.1,1800 231.5,1805.2 
				228.1,1810.4 			"/>
		</g>
		<g>
			<polygon fill="#FFFFFF" points="417,1724.7 424.1,1723.2 417,1721.7 415.5,1714.6 414,1721.7 406.9,1723.2 414,1724.7 
				415.5,1731.8 			"/>
			<polygon fill="#FFFFFF" points="415.5,1724.7 419.8,1727.5 417,1723.2 419.8,1718.9 415.5,1721.7 411.2,1718.9 414,1723.2 
				411.2,1727.5 			"/>
		</g>
		<g>
			<polygon fill="#FFFFFF" points="555.3,2087.2 563.3,2085.5 555.3,2083.8 553.6,2075.9 552,2083.8 544,2085.5 552,2087.2 
				553.6,2095.1 			"/>
			<polygon fill="#FFFFFF" points="553.6,2087.2 558.5,2090.3 555.3,2085.5 558.5,2080.7 553.6,2083.8 548.8,2080.7 552,2085.5 
				548.8,2090.3 			"/>
		</g>
		<g>
			<polygon fill="#FFFFFF" points="691.9,2008.8 697.3,2007.7 691.9,2006.5 690.8,2001.1 689.6,2006.5 684.2,2007.7 689.6,2008.8 
				690.8,2014.2 			"/>
			<polygon fill="#FFFFFF" points="690.8,2008.8 694,2011 691.9,2007.7 694,2004.4 690.8,2006.5 687.5,2004.4 689.6,2007.7 
				687.5,2011 			"/>
		</g>
		<g>
			<polygon fill="#FFFFFF" points="863.1,1838.8 869,1837.6 863.1,1836.3 861.9,1830.5 860.6,1836.3 854.8,1837.6 860.6,1838.8 
				861.9,1844.7 			"/>
			<polygon fill="#FFFFFF" points="861.9,1838.8 865.4,1841.1 863.1,1837.6 865.4,1834 861.9,1836.3 858.3,1834 860.6,1837.6 
				858.3,1841.1 			"/>
		</g>
		<g>
			<polygon fill="#FFFFFF" points="1017.9,2042.2 1023.5,2041 1017.9,2039.8 1016.7,2034.2 1015.5,2039.8 1009.9,2041 
				1015.5,2042.2 1016.7,2047.8 			"/>
			<polygon fill="#FFFFFF" points="1016.7,2042.2 1020.1,2044.4 1017.9,2041 1020.1,2037.6 1016.7,2039.8 1013.3,2037.6 
				1015.5,2041 1013.3,2044.4 			"/>
		</g>
		<g>
			<polygon fill="#FFFFFF" points="1176.1,1897.4 1185,1895.5 1176.1,1893.6 1174.2,1884.7 1172.3,1893.6 1163.4,1895.5 
				1172.3,1897.4 1174.2,1906.3 			"/>
			<polygon fill="#FFFFFF" points="1174.2,1897.4 1179.6,1900.9 1176.1,1895.5 1179.6,1890.1 1174.2,1893.6 1168.8,1890.1 
				1172.4,1895.5 1168.8,1900.9 			"/>
		</g>
		<g>
			<polygon fill="#FFFFFF" points="1603.9,2126.4 1613.6,2124.4 1603.9,2122.3 1601.8,2112.6 1599.8,2122.3 1590.1,2124.4 
				1599.8,2126.4 1601.8,2136.1 			"/>
			<polygon fill="#FFFFFF" points="1601.8,2126.4 1607.7,2130.2 1603.9,2124.4 1607.7,2118.5 1601.8,2122.3 1596,2118.5 
				1599.8,2124.4 1596,2130.2 			"/>
		</g>
		<g>
			<polygon fill="#FFFFFF" points="1786.2,1796.5 1799.5,1793.7 1786.2,1790.9 1783.4,1777.6 1780.6,1790.9 1767.3,1793.7 
				1780.6,1796.5 1783.4,1809.7 			"/>
			<polygon fill="#FFFFFF" points="1783.4,1796.5 1791.4,1801.7 1786.2,1793.7 1791.4,1785.7 1783.4,1790.9 1775.4,1785.7 
				1780.6,1793.7 1775.4,1801.7 			"/>
		</g>
		<g>
			<polygon fill="#FFFFFF" points="1907.6,1928.7 1920.6,1926 1907.6,1923.3 1904.9,1910.3 1902.2,1923.3 1889.3,1926 
				1902.2,1928.7 1904.9,1941.6 			"/>
			<polygon fill="#FFFFFF" points="1904.9,1928.7 1912.7,1933.8 1907.6,1926 1912.7,1918.2 1904.9,1923.3 1897.1,1918.2 
				1902.2,1926 1897.1,1933.8 			"/>
		</g>
		<g>
			<polygon fill="#FFFFFF" points="2037.4,2168.7 2048.7,2166.3 2037.4,2164 2035,2152.7 2032.7,2164 2021.4,2166.3 2032.7,2168.7 
				2035,2180 			"/>
			<polygon fill="#FFFFFF" points="2035,2168.7 2041.8,2173.1 2037.4,2166.3 2041.8,2159.5 2035,2164 2028.2,2159.5 2032.7,2166.3 
				2028.2,2173.1 			"/>
		</g>
		<g>
			<polygon fill="#FFFFFF" points="2222.5,2010.4 2229.9,2008.8 2222.5,2007.2 2220.9,1999.8 2219.3,2007.2 2211.9,2008.8 
				2219.3,2010.4 2220.9,2017.8 			"/>
			<polygon fill="#FFFFFF" points="2220.9,2010.3 2225.4,2013.3 2222.5,2008.8 2225.4,2004.3 2220.9,2007.2 2216.4,2004.3 
				2219.3,2008.8 2216.4,2013.3 			"/>
		</g>
		<g>
			<polygon fill="#FFFFFF" points="2393.7,1759.7 2403.1,1757.7 2393.7,1755.7 2391.7,1746.3 2389.7,1755.7 2380.2,1757.7 
				2389.7,1759.7 2391.7,1769.2 			"/>
			<polygon fill="#FFFFFF" points="2391.7,1759.7 2397.4,1763.4 2393.7,1757.7 2397.4,1752 2391.7,1755.7 2386,1752 2389.7,1757.7 
				2386,1763.4 			"/>
		</g>
		<g>
			<polygon fill="#FFFFFF" points="2525.6,1829.4 2531.4,1828.2 2525.6,1827 2524.4,1821.2 2523.2,1827 2517.4,1828.2 
				2523.2,1829.4 2524.4,1835.2 			"/>
			<polygon fill="#FFFFFF" points="2524.4,1829.4 2527.9,1831.7 2525.6,1828.2 2527.9,1824.7 2524.4,1827 2520.9,1824.7 
				2523.2,1828.2 2520.9,1831.7 			"/>
		</g>
		<g>
			<polygon fill="#FFFFFF" points="2651.9,1874.3 2659.1,1872.8 2651.9,1871.2 2650.4,1864 2648.9,1871.2 2641.7,1872.8 
				2648.9,1874.3 2650.4,1881.5 			"/>
			<polygon fill="#FFFFFF" points="2650.4,1874.3 2654.8,1877.1 2651.9,1872.8 2654.8,1868.4 2650.4,1871.3 2646.1,1868.4 
				2648.9,1872.8 2646.1,1877.1 			"/>
		</g>
		<g>
			<polygon fill="#FFFFFF" points="2664.9,1696.7 2672.8,1695 2664.9,1693.4 2663.2,1685.4 2661.5,1693.4 2653.6,1695 
				2661.5,1696.7 2663.2,1704.7 			"/>
			<polygon fill="#FFFFFF" points="2663.2,1696.7 2668,1699.8 2664.9,1695 2668,1690.2 2663.2,1693.4 2658.4,1690.2 2661.5,1695 
				2658.4,1699.8 			"/>
		</g>
		<g>
			<polygon fill="#FFFFFF" points="2533.9,1674.7 2544.2,1672.5 2533.9,1670.3 2531.7,1660 2529.6,1670.3 2519.2,1672.5 
				2529.6,1674.7 2531.7,1685 			"/>
			<polygon fill="#FFFFFF" points="2531.7,1674.7 2538,1678.7 2533.9,1672.5 2538,1666.2 2531.7,1670.3 2525.5,1666.2 
				2529.6,1672.5 2525.5,1678.7 			"/>
		</g>
		<g>
			<polygon fill="#FFFFFF" points="2407.8,1274 2418.5,1271.7 2407.8,1269.5 2405.5,1258.7 2403.3,1269.5 2392.5,1271.7 
				2403.3,1274 2405.5,1284.7 			"/>
			<polygon fill="#FFFFFF" points="2405.5,1274 2412,1278.2 2407.8,1271.7 2412,1265.3 2405.5,1269.5 2399.1,1265.3 2403.3,1271.7 
				2399.1,1278.2 			"/>
		</g>
		<g>
			<polygon fill="#FFFFFF" points="2253.6,1405.6 2265,1403.2 2253.6,1400.8 2251.2,1389.5 2248.8,1400.8 2237.5,1403.2 
				2248.8,1405.6 2251.2,1417 			"/>
			<polygon fill="#FFFFFF" points="2251.2,1405.6 2258.1,1410.1 2253.6,1403.2 2258.1,1396.4 2251.2,1400.8 2244.4,1396.4 
				2248.9,1403.2 2244.4,1410.1 			"/>
		</g>
		<g>
			<polygon fill="#FFFFFF" points="2074.6,1415.7 2087.3,1413 2074.6,1410.4 2072,1397.7 2069.3,1410.4 2056.6,1413 2069.3,1415.7 
				2072,1428.4 			"/>
			<polygon fill="#FFFFFF" points="2072,1415.7 2079.6,1420.7 2074.6,1413 2079.6,1405.4 2072,1410.4 2064.3,1405.4 2069.3,1413 
				2064.3,1420.7 			"/>
		</g>
		<g>
			<polygon fill="#FFFFFF" points="1910,1580.9 1916.3,1579.5 1910,1578.2 1908.7,1572 1907.4,1578.2 1901.1,1579.5 1907.4,1580.9 
				1908.7,1587.1 			"/>
			<polygon fill="#FFFFFF" points="1908.7,1580.9 1912.5,1583.3 1910,1579.5 1912.5,1575.8 1908.7,1578.2 1904.9,1575.8 
				1907.4,1579.5 1904.9,1583.3 			"/>
		</g>
		<g>
			<polygon fill="#FFFFFF" points="885.7,1568.2 898.7,1565.5 885.7,1562.7 882.9,1549.8 880.2,1562.7 867.2,1565.5 880.2,1568.2 
				882.9,1581.2 			"/>
			<polygon fill="#FFFFFF" points="882.9,1568.2 890.8,1573.3 885.7,1565.5 890.8,1557.7 882.9,1562.8 875.1,1557.7 880.2,1565.5 
				875.1,1573.3 			"/>
		</g>
		<g>
			<polygon fill="#FFFFFF" points="768.5,1287.3 775,1286 768.5,1284.6 767.2,1278.1 765.8,1284.6 759.3,1286 765.8,1287.3 
				767.2,1293.8 			"/>
			<polygon fill="#FFFFFF" points="767.2,1287.3 771.1,1289.9 768.5,1286 771.1,1282 767.2,1284.6 763.2,1282 765.8,1286 
				763.2,1289.9 			"/>
		</g>
		<g>
			<polygon fill="#FFFFFF" points="592.7,1379.9 600.5,1378.2 592.7,1376.6 591,1368.7 589.4,1376.6 581.5,1378.2 589.4,1379.9 
				591,1387.7 			"/>
			<polygon fill="#FFFFFF" points="591,1379.9 595.7,1382.9 592.7,1378.2 595.7,1373.5 591,1376.6 586.3,1373.5 589.4,1378.2 
				586.3,1382.9 			"/>
		</g>
		<g>
			<polygon fill="#FFFFFF" points="460.7,1348.5 469.5,1346.7 460.7,1344.8 458.8,1336 456.9,1344.8 448.1,1346.7 456.9,1348.5 
				458.8,1357.4 			"/>
			<polygon fill="#FFFFFF" points="458.8,1348.5 464.1,1352 460.7,1346.7 464.1,1341.4 458.8,1344.8 453.5,1341.4 456.9,1346.7 
				453.5,1352 			"/>
		</g>
		<g>
			<polygon fill="#FFFFFF" points="321.8,1099.2 327.8,1098 321.8,1096.8 320.6,1090.8 319.4,1096.8 313.4,1098 319.4,1099.2 
				320.6,1105.2 			"/>
			<polygon fill="#FFFFFF" points="320.6,1099.2 324.2,1101.6 321.8,1098 324.2,1094.4 320.6,1096.8 317,1094.4 319.4,1098 
				317,1101.6 			"/>
		</g>
		<g>
			<polygon fill="#FFFFFF" points="99.4,1505.6 108,1503.8 99.4,1502 97.6,1493.4 95.8,1502 87.2,1503.8 95.8,1505.6 97.6,1514.2 
							"/>
			<polygon fill="#FFFFFF" points="97.6,1505.6 102.8,1509 99.4,1503.8 102.8,1498.6 97.6,1502 92.4,1498.6 95.8,1503.8 92.4,1509 
							"/>
		</g>
		<g>
			<polygon fill="#FFFFFF" points="79.7,901.4 93,898.6 79.7,895.8 76.9,882.5 74.1,895.8 60.8,898.6 74.1,901.4 76.9,914.7 			"/>
			<polygon fill="#FFFFFF" points="76.9,901.4 84.9,906.6 79.7,898.6 84.9,890.6 76.9,895.8 68.9,890.6 74.1,898.6 68.9,906.6 			
				"/>
		</g>
		<g>
			<polygon fill="#FFFFFF" points="207.7,1047.5 218.8,1045.2 207.7,1042.9 205.3,1031.7 203,1042.9 191.9,1045.2 203,1047.5 
				205.3,1058.7 			"/>
			<polygon fill="#FFFFFF" points="205.3,1047.5 212,1051.9 207.7,1045.2 212,1038.5 205.3,1042.9 198.6,1038.5 203,1045.2 
				198.6,1051.9 			"/>
		</g>
		<g>
			<polygon fill="#FFFFFF" points="339.9,1021.8 348.1,1020 339.9,1018.3 338.2,1010.1 336.4,1018.3 328.2,1020 336.4,1021.8 
				338.2,1030 			"/>
			<polygon fill="#FFFFFF" points="338.2,1021.8 343.1,1025 339.9,1020 343.1,1015.1 338.2,1018.3 333.2,1015.1 336.4,1020 
				333.2,1025 			"/>
		</g>
		<g>
			<polygon fill="#FFFFFF" points="474.2,959.3 486.7,956.7 474.2,954 471.6,941.6 469,954 456.5,956.7 469,959.3 471.6,971.7 			
				"/>
			<polygon fill="#FFFFFF" points="471.6,959.3 479.1,964.2 474.2,956.7 479.1,949.1 471.6,954 464.1,949.1 469,956.7 464.1,964.2 
							"/>
		</g>
		<g>
			<polygon fill="#FFFFFF" points="631.6,625.4 638.3,624 631.6,622.5 630.1,615.8 628.7,622.5 621.9,624 628.7,625.4 630.1,632.2 
							"/>
			<polygon fill="#FFFFFF" points="630.1,625.4 634.2,628.1 631.6,624 634.2,619.9 630.1,622.6 626,619.9 628.7,624 626,628.1 			
				"/>
		</g>
		<g>
			<polygon fill="#FFFFFF" points="758.2,942.5 763.9,941.3 758.2,940.1 757,934.4 755.8,940.1 750.1,941.3 755.8,942.5 757,948.2 
							"/>
			<polygon fill="#FFFFFF" points="757,942.5 760.5,944.8 758.2,941.3 760.5,937.9 757,940.1 753.6,937.9 755.8,941.3 753.6,944.8 
							"/>
		</g>
		<g>
			<polygon fill="#FFFFFF" points="927,1035.1 935.2,1033.4 927,1031.7 925.2,1023.4 923.5,1031.7 915.3,1033.4 923.5,1035.1 
				925.2,1043.4 			"/>
			<polygon fill="#FFFFFF" points="925.2,1035.1 930.2,1038.4 927,1033.4 930.2,1028.4 925.2,1031.7 920.3,1028.4 923.5,1033.4 
				920.3,1038.4 			"/>
		</g>
		<g>
			<polygon fill="#FFFFFF" points="1063.5,1004.3 1076.3,1001.6 1063.5,998.9 1060.8,986.1 1058.1,998.9 1045.3,1001.6 
				1058.1,1004.3 1060.8,1017.1 			"/>
			<polygon fill="#FFFFFF" points="1060.8,1004.3 1068.6,1009.3 1063.5,1001.6 1068.6,993.9 1060.8,998.9 1053.1,993.9 
				1058.1,1001.6 1053.1,1009.3 			"/>
		</g>
		<g>
			<polygon fill="#FFFFFF" points="1196.3,930.2 1203.6,928.7 1196.3,927.2 1194.8,919.9 1193.3,927.2 1186,928.7 1193.3,930.2 
				1194.8,937.5 			"/>
			<polygon fill="#FFFFFF" points="1194.8,930.2 1199.2,933.1 1196.3,928.7 1199.2,924.3 1194.8,927.2 1190.4,924.3 1193.3,928.7 
				1190.4,933.1 			"/>
		</g>
		<g>
			<polygon fill="#FFFFFF" points="1383.4,782.4 1395.6,779.8 1383.4,777.3 1380.9,765 1378.3,777.3 1366.1,779.8 1378.3,782.4 
				1380.9,794.6 			"/>
			<polygon fill="#FFFFFF" points="1380.9,782.4 1388.2,787.2 1383.4,779.8 1388.2,772.5 1380.9,777.3 1373.5,772.5 1378.3,779.8 
				1373.5,787.2 			"/>
		</g>
		<g>
			<polygon fill="#FFFFFF" points="1556.1,972.3 1569,969.6 1556.1,966.8 1553.4,953.9 1550.7,966.8 1537.7,969.6 1550.7,972.3 
				1553.4,985.2 			"/>
			<polygon fill="#FFFFFF" points="1553.4,972.3 1561.2,977.4 1556.1,969.6 1561.2,961.8 1553.4,966.8 1545.6,961.8 1550.7,969.6 
				1545.6,977.4 			"/>
		</g>
		<g>
			<polygon fill="#FFFFFF" points="1742.7,752.9 1755.4,750.2 1742.7,747.6 1740.1,734.9 1737.4,747.6 1724.7,750.2 1737.4,752.9 
				1740.1,765.6 			"/>
			<polygon fill="#FFFFFF" points="1740.1,752.9 1747.7,757.9 1742.7,750.2 1747.7,742.6 1740.1,747.6 1732.4,742.6 1737.4,750.2 
				1732.4,757.9 			"/>
		</g>
		<g>
			<polygon fill="#FFFFFF" points="1859.7,1053.9 1865.1,1052.7 1859.7,1051.6 1858.6,1046.2 1857.4,1051.6 1852.1,1052.7 
				1857.4,1053.9 1858.6,1059.3 			"/>
			<polygon fill="#FFFFFF" points="1858.6,1053.9 1861.8,1056 1859.7,1052.7 1861.8,1049.5 1858.6,1051.6 1855.3,1049.5 
				1857.5,1052.7 1855.3,1056 			"/>
		</g>
		<g>
			<polygon fill="#FFFFFF" points="2024.5,693.6 2034.3,691.5 2024.5,689.4 2022.4,679.6 2020.3,689.4 2010.5,691.5 2020.3,693.6 
				2022.4,703.4 			"/>
			<polygon fill="#FFFFFF" points="2022.4,693.6 2028.3,697.4 2024.5,691.5 2028.3,685.6 2022.4,689.4 2016.5,685.6 2020.3,691.5 
				2016.5,697.4 			"/>
		</g>
		<g>
			<polygon fill="#FFFFFF" points="2171.2,819.1 2180.8,817.1 2171.2,815 2169.2,805.4 2167.1,815 2157.5,817.1 2167.1,819.1 
				2169.2,828.7 			"/>
			<polygon fill="#FFFFFF" points="2169.2,819.1 2175,822.9 2171.2,817.1 2175,811.2 2169.2,815 2163.4,811.2 2167.1,817.1 
				2163.4,822.9 			"/>
		</g>
		<g>
			<polygon fill="#FFFFFF" points="2337,876.9 2345.8,875 2337,873.1 2335.1,864.3 2333.3,873.1 2324.4,875 2333.3,876.9 
				2335.1,885.7 			"/>
			<polygon fill="#FFFFFF" points="2335.1,876.9 2340.5,880.3 2337,875 2340.5,869.7 2335.1,873.2 2329.8,869.7 2333.3,875 
				2329.8,880.3 			"/>
		</g>
		<g>
			<polygon fill="#FFFFFF" points="2487.2,975 2492.8,973.8 2487.2,972.6 2486,966.9 2484.8,972.6 2479.1,973.8 2484.8,975 
				2486,980.6 			"/>
			<polygon fill="#FFFFFF" points="2486,975 2489.4,977.2 2487.2,973.8 2489.4,970.4 2486,972.6 2482.6,970.4 2484.8,973.8 
				2482.6,977.2 			"/>
		</g>
		<g>
			<polygon fill="#FFFFFF" points="2618.1,1155.2 2625.7,1153.6 2618.1,1152 2616.4,1144.3 2614.8,1152 2607.2,1153.6 
				2614.8,1155.2 2616.4,1162.8 			"/>
			<polygon fill="#FFFFFF" points="2616.4,1155.2 2621.1,1158.2 2618.1,1153.6 2621.1,1149 2616.4,1152 2611.8,1149 2614.8,1153.6 
				2611.8,1158.2 			"/>
		</g>
		<g>
			<polygon fill="#FFFFFF" points="2739.7,824.3 2746.5,822.9 2739.7,821.5 2738.3,814.7 2736.8,821.5 2730,822.9 2736.8,824.3 
				2738.3,831.1 			"/>
			<polygon fill="#FFFFFF" points="2738.3,824.3 2742.4,827 2739.7,822.9 2742.4,818.8 2738.3,821.5 2734.1,818.8 2736.8,822.9 
				2734.1,827 			"/>
		</g>
		<g>
			<polygon fill="#FFFFFF" points="2583.6,449.1 2594.4,446.8 2583.6,444.5 2581.3,433.7 2579,444.5 2568.2,446.8 2579,449.1 
				2581.3,459.9 			"/>
			<polygon fill="#FFFFFF" points="2581.3,449.1 2587.8,453.3 2583.6,446.8 2587.8,440.3 2581.3,444.5 2574.8,440.3 2579.1,446.8 
				2574.8,453.3 			"/>
		</g>
		<g>
			<polygon fill="#FFFFFF" points="2410.5,602.3 2419.8,600.3 2410.5,598.4 2408.5,589.1 2406.5,598.4 2397.2,600.3 2406.5,602.3 
				2408.5,611.6 			"/>
			<polygon fill="#FFFFFF" points="2408.5,602.3 2414.1,606 2410.5,600.3 2414.1,594.7 2408.5,598.4 2402.9,594.7 2406.6,600.3 
				2402.9,606 			"/>
		</g>
		<g>
			<polygon fill="#FFFFFF" points="2269.5,635.7 2282.4,633 2269.5,630.3 2266.8,617.4 2264.1,630.3 2251.2,633 2264.1,635.7 
				2266.8,648.6 			"/>
			<polygon fill="#FFFFFF" points="2266.8,635.7 2274.6,640.8 2269.5,633 2274.6,625.2 2266.8,630.3 2259,625.2 2264.1,633 
				2259,640.8 			"/>
		</g>
		<g>
			<polygon fill="#FFFFFF" points="2139.4,547.6 2151.8,545 2139.4,542.4 2136.7,530 2134.1,542.4 2121.7,545 2134.1,547.6 
				2136.7,560 			"/>
			<polygon fill="#FFFFFF" points="2136.7,547.6 2144.2,552.5 2139.4,545 2144.2,537.5 2136.7,542.4 2129.3,537.5 2134.1,545 
				2129.3,552.5 			"/>
		</g>
		<g>
			<polygon fill="#FFFFFF" points="2014.5,365.3 2022.2,363.7 2014.5,362.1 2012.9,354.4 2011.3,362.1 2003.6,363.7 2011.3,365.3 
				2012.9,373 			"/>
			<polygon fill="#FFFFFF" points="2012.9,365.3 2017.5,368.3 2014.5,363.7 2017.5,359 2012.9,362.1 2008.3,359 2011.3,363.7 
				2008.3,368.3 			"/>
		</g>
		<g>
			<polygon fill="#FFFFFF" points="1844.6,480.8 1851.4,479.3 1844.6,477.9 1843.2,471.1 1841.8,477.9 1835,479.3 1841.8,480.8 
				1843.2,487.5 			"/>
			<polygon fill="#FFFFFF" points="1843.2,480.8 1847.3,483.4 1844.6,479.3 1847.3,475.2 1843.2,477.9 1839.1,475.2 1841.8,479.3 
				1839.1,483.4 			"/>
		</g>
		<g>
			<polygon fill="#FFFFFF" points="1676.2,436.4 1686.4,434.2 1676.2,432.1 1674.1,421.9 1671.9,432.1 1661.7,434.2 1671.9,436.4 
				1674.1,446.5 			"/>
			<polygon fill="#FFFFFF" points="1674.1,436.4 1680.2,440.4 1676.2,434.2 1680.2,428.1 1674.1,432.1 1667.9,428.1 1671.9,434.2 
				1667.9,440.4 			"/>
		</g>
		<g>
			<polygon fill="#FFFFFF" points="1539.3,710.9 1548.4,709 1539.3,707.1 1537.4,698 1535.5,707.1 1526.4,709 1535.5,710.9 
				1537.4,720 			"/>
			<polygon fill="#FFFFFF" points="1537.4,710.9 1542.9,714.5 1539.3,709 1542.9,703.5 1537.4,707.1 1531.9,703.5 1535.5,709 
				1531.9,714.5 			"/>
		</g>
		<g>
			<polygon fill="#FFFFFF" points="1399.9,593.2 1411.4,590.7 1399.9,588.3 1397.5,576.8 1395,588.3 1383.5,590.7 1395,593.2 
				1397.5,604.7 			"/>
			<polygon fill="#FFFFFF" points="1397.5,593.2 1404.4,597.7 1399.9,590.7 1404.4,583.8 1397.5,588.3 1390.5,583.8 1395.1,590.7 
				1390.5,597.7 			"/>
		</g>
		<g>
			<polygon fill="#FFFFFF" points="1244.9,746.9 1250.3,745.7 1244.9,744.6 1243.8,739.2 1242.7,744.6 1237.3,745.7 1242.7,746.9 
				1243.8,752.3 			"/>
			<polygon fill="#FFFFFF" points="1243.8,746.9 1247.1,749 1244.9,745.7 1247.1,742.5 1243.8,744.6 1240.5,742.5 1242.7,745.7 
				1240.5,749 			"/>
		</g>
		<g>
			<polygon fill="#FFFFFF" points="1084.1,701.6 1090.1,700.3 1084.1,699.1 1082.9,693.1 1081.6,699.1 1075.7,700.3 1081.6,701.6 
				1082.9,707.5 			"/>
			<polygon fill="#FFFFFF" points="1082.9,701.6 1086.5,703.9 1084.1,700.3 1086.5,696.7 1082.9,699.1 1079.3,696.7 1081.6,700.3 
				1079.3,703.9 			"/>
		</g>
		<g>
			<polygon fill="#FFFFFF" points="954.4,673.6 966.4,671.1 954.4,668.5 951.9,656.5 949.3,668.5 937.3,671.1 949.3,673.6 
				951.9,685.6 			"/>
			<polygon fill="#FFFFFF" points="951.9,673.6 959.1,678.3 954.4,671.1 959.1,663.8 951.9,668.5 944.6,663.8 949.4,671.1 
				944.6,678.3 			"/>
		</g>
		<g>
			<polygon fill="#FFFFFF" points="816.6,477.1 826.3,475.1 816.6,473 814.6,463.4 812.6,473 802.9,475.1 812.6,477.1 814.6,486.7 
							"/>
			<polygon fill="#FFFFFF" points="814.6,477.1 820.4,480.9 816.6,475.1 820.4,469.2 814.6,473 808.8,469.2 812.6,475.1 
				808.8,480.9 			"/>
		</g>
		<g>
			<polygon fill="#FFFFFF" points="689,254.4 700.2,252.1 689,249.7 686.6,238.6 684.3,249.7 673.1,252.1 684.3,254.4 686.6,265.6 
							"/>
			<polygon fill="#FFFFFF" points="686.6,254.4 693.4,258.8 689,252.1 693.4,245.3 686.6,249.7 679.9,245.3 684.3,252.1 
				679.9,258.8 			"/>
		</g>
		<g>
			<polygon fill="#FFFFFF" points="535.1,313.5 546.3,311.2 535.1,308.8 532.7,297.7 530.4,308.8 519.2,311.2 530.4,313.5 
				532.7,324.7 			"/>
			<polygon fill="#FFFFFF" points="532.7,313.5 539.5,317.9 535.1,311.2 539.5,304.4 532.7,308.8 526,304.4 530.4,311.2 526,317.9 
							"/>
		</g>
		<g>
			<polygon fill="#FFFFFF" points="367.5,568.9 378,566.7 367.5,564.5 365.3,554.1 363.1,564.5 352.7,566.7 363.1,568.9 
				365.3,579.4 			"/>
			<polygon fill="#FFFFFF" points="365.3,568.9 371.6,573 367.5,566.7 371.6,560.4 365.3,564.5 359,560.4 363.1,566.7 359,573 			
				"/>
		</g>
		<g>
			<polygon fill="#FFFFFF" points="210.4,377.3 220.2,375.2 210.4,373.2 208.3,363.3 206.2,373.2 196.4,375.2 206.2,377.3 
				208.3,387.1 			"/>
			<polygon fill="#FFFFFF" points="208.3,377.3 214.2,381.2 210.4,375.2 214.2,369.3 208.3,373.2 202.4,369.3 206.2,375.2 
				202.4,381.2 			"/>
		</g>
		<g>
			<polygon fill="#FFFFFF" points="79.4,233.2 91.1,230.8 79.4,228.3 76.9,216.6 74.5,228.3 62.8,230.8 74.5,233.2 76.9,244.9 			
				"/>
			<polygon fill="#FFFFFF" points="76.9,233.2 84,237.8 79.4,230.8 84,223.7 76.9,228.3 69.9,223.7 74.5,230.8 69.9,237.8 			"/>
		</g>
		<g>
			<polygon fill="#FFFFFF" points="46.1,220.2 53.4,218.6 46.1,217.1 44.5,209.7 43,217.1 35.6,218.6 43,220.2 44.5,227.5 			"/>
			<polygon fill="#FFFFFF" points="44.5,220.2 49,223.1 46.1,218.6 49,214.2 44.5,217.1 40.1,214.2 43,218.6 40.1,223.1 			"/>
		</g>
		<g>
			<polygon fill="#FFFFFF" points="50.2,141.7 62.2,139.2 50.2,136.7 47.7,124.8 45.2,136.7 33.3,139.2 45.2,141.7 47.7,153.6 			
				"/>
			<polygon fill="#FFFFFF" points="47.7,141.7 54.9,146.4 50.2,139.2 54.9,132 47.7,136.7 40.5,132 45.2,139.2 40.5,146.4 			"/>
		</g>
		<g>
			<polygon fill="#FFFFFF" points="165.5,209.6 178.3,206.9 165.5,204.2 162.8,191.4 160.1,204.2 147.2,206.9 160.1,209.6 
				162.8,222.5 			"/>
			<polygon fill="#FFFFFF" points="162.8,209.6 170.5,214.7 165.5,206.9 170.5,199.2 162.8,204.2 155,199.2 160.1,206.9 155,214.7 
							"/>
		</g>
		<g>
			<polygon fill="#FFFFFF" points="273.8,76.1 282,74.4 273.8,72.7 272.1,64.5 270.4,72.7 262.2,74.4 270.4,76.1 272.1,84.3 			"/>
			<polygon fill="#FFFFFF" points="272.1,76.1 277,79.3 273.8,74.4 277,69.5 272.1,72.7 267.2,69.5 270.4,74.4 267.2,79.3 			"/>
		</g>
		<g>
			<polygon fill="#FFFFFF" points="446.3,118 457.1,115.7 446.3,113.4 444,102.7 441.8,113.4 431,115.7 441.8,118 444,128.7 			"/>
			<polygon fill="#FFFFFF" points="444,118 450.5,122.2 446.3,115.7 450.5,109.2 444,113.4 437.5,109.2 441.8,115.7 437.5,122.2 			
				"/>
		</g>
		<g>
			<polygon fill="#FFFFFF" points="574.8,62.7 582.9,61 574.8,59.3 573.1,51.2 571.4,59.3 563.3,61 571.4,62.7 573.1,70.8 			"/>
			<polygon fill="#FFFFFF" points="573.1,62.7 578,65.9 574.8,61 578,56.1 573.1,59.3 568.2,56.1 571.4,61 568.2,65.9 			"/>
		</g>
		<g>
			<polygon fill="#FFFFFF" points="890.3,87.5 901.3,85.2 890.3,82.9 888,71.8 885.7,82.9 874.6,85.2 885.7,87.5 888,98.5 			"/>
			<polygon fill="#FFFFFF" points="888,87.5 894.6,91.8 890.3,85.2 894.6,78.5 888,82.9 881.3,78.5 885.7,85.2 881.3,91.8 			"/>
		</g>
		<g>
			<polygon fill="#FFFFFF" points="1638.4,209.8 1650.9,207.2 1638.4,204.6 1635.8,192.1 1633.2,204.6 1620.7,207.2 1633.2,209.8 
				1635.8,222.3 			"/>
			<polygon fill="#FFFFFF" points="1635.8,209.8 1643.3,214.7 1638.4,207.2 1643.3,199.7 1635.8,204.6 1628.3,199.7 1633.2,207.2 
				1628.3,214.7 			"/>
		</g>
		<g>
			<polygon fill="#FFFFFF" points="1775.3,37.4 1781.3,36.2 1775.3,34.9 1774,28.9 1772.8,34.9 1766.8,36.2 1772.8,37.4 1774,43.5 
							"/>
			<polygon fill="#FFFFFF" points="1774,37.4 1777.7,39.8 1775.3,36.2 1777.7,32.6 1774,34.9 1770.4,32.6 1772.8,36.2 1770.4,39.8 
							"/>
		</g>
		<g>
			<polygon fill="#FFFFFF" points="2637.7,179.5 2650.7,176.8 2637.7,174 2634.9,161 2632.1,174 2619.1,176.8 2632.1,179.5 
				2634.9,192.6 			"/>
			<polygon fill="#FFFFFF" points="2634.9,179.5 2642.8,184.7 2637.6,176.8 2642.8,168.9 2634.9,174 2627,168.9 2632.1,176.8 
				2627,184.7 			"/>
		</g>
		<g>
			<polygon fill="#FFFFFF" points="2761.6,1609.6 2769.5,1608 2761.6,1606.3 2759.9,1598.4 2758.2,1606.3 2750.3,1608 
				2758.2,1609.6 2759.9,1617.5 			"/>
			<polygon fill="#FFFFFF" points="2759.9,1609.6 2764.7,1612.7 2761.6,1608 2764.7,1603.2 2759.9,1606.3 2755.1,1603.2 
				2758.2,1608 2755.1,1612.7 			"/>
		</g>
		<g>
			<polygon fill="#FFFFFF" points="2693.1,1151.7 2699.1,1150.4 2693.1,1149.2 2691.8,1143.2 2690.6,1149.2 2684.5,1150.4 
				2690.6,1151.7 2691.8,1157.7 			"/>
			<polygon fill="#FFFFFF" points="2691.8,1151.7 2695.5,1154.1 2693.1,1150.4 2695.5,1146.8 2691.8,1149.2 2688.2,1146.8 
				2690.6,1150.4 2688.2,1154.1 			"/>
		</g>
		<g>
			<polygon fill="#FFFFFF" points="2698.3,547 2711.4,544.3 2698.3,541.5 2695.6,528.5 2692.8,541.5 2679.8,544.3 2692.8,547 
				2695.6,560.1 			"/>
			<polygon fill="#FFFFFF" points="2695.6,547 2703.4,552.1 2698.3,544.3 2703.4,536.4 2695.6,541.5 2687.7,536.4 2692.8,544.3 
				2687.7,552.1 			"/>
		</g>
		<g>
			<polygon fill="#FFFFFF" points="2699.3,362.9 2708.7,360.9 2699.3,358.9 2697.3,349.4 2695.3,358.9 2685.9,360.9 2695.3,362.9 
				2697.3,372.3 			"/>
			<polygon fill="#FFFFFF" points="2697.3,362.9 2703,366.6 2699.3,360.9 2703,355.2 2697.3,358.9 2691.6,355.2 2695.3,360.9 
				2691.6,366.6 			"/>
		</g>
		<g>
			<polygon fill="#FFFFFF" points="2655,224.9 2665.3,222.8 2655,220.6 2652.8,210.3 2650.7,220.6 2640.4,222.8 2650.7,224.9 
				2652.8,235.2 			"/>
			<polygon fill="#FFFFFF" points="2652.8,224.9 2659,229 2655,222.8 2659,216.6 2652.8,220.6 2646.6,216.6 2650.7,222.8 
				2646.6,229 			"/>
		</g>
		<g>
			<polygon fill="#FFFFFF" points="2715.1,78.5 2723.9,76.7 2715.1,74.8 2713.2,66 2711.3,74.8 2702.5,76.7 2711.3,78.5 
				2713.2,87.4 			"/>
			<polygon fill="#FFFFFF" points="2713.2,78.5 2718.5,82 2715.1,76.7 2718.5,71.3 2713.2,74.8 2707.9,71.3 2711.3,76.7 2707.9,82 
							"/>
		</g>
		<g>
			<polygon fill="#FFFFFF" points="2547,49 2554.8,47.3 2547,45.7 2545.4,37.9 2543.7,45.7 2536,47.3 2543.7,49 2545.4,56.8 			"/>
			<polygon fill="#FFFFFF" points="2545.4,49 2550.1,52 2547,47.3 2550.1,42.7 2545.4,45.7 2540.7,42.7 2543.8,47.3 2540.7,52 			
				"/>
		</g>
		<g>
			<polygon fill="#FFFFFF" points="2347.7,79.7 2354.8,78.3 2347.7,76.8 2346.2,69.8 2344.8,76.8 2337.7,78.3 2344.8,79.7 
				2346.2,86.8 			"/>
			<polygon fill="#FFFFFF" points="2346.2,79.7 2350.5,82.5 2347.7,78.3 2350.5,74 2346.2,76.8 2342,74 2344.8,78.3 2342,82.5 			
				"/>
		</g>
		<g>
			<polygon fill="#FFFFFF" points="2358.5,223 2365.7,221.5 2358.5,220 2356.9,212.8 2355.4,220 2348.2,221.5 2355.4,223 
				2356.9,230.3 			"/>
			<polygon fill="#FFFFFF" points="2356.9,223 2361.3,225.9 2358.5,221.5 2361.3,217.2 2356.9,220 2352.6,217.2 2355.4,221.5 
				2352.6,225.9 			"/>
		</g>
		<g>
			<polygon fill="#FFFFFF" points="2527.1,355.7 2534.1,354.2 2527.1,352.7 2525.7,345.8 2524.2,352.7 2517.2,354.2 2524.2,355.7 
				2525.7,362.7 			"/>
			<polygon fill="#FFFFFF" points="2525.7,355.7 2529.9,358.4 2527.1,354.2 2529.9,350 2525.7,352.7 2521.5,350 2524.2,354.2 
				2521.5,358.4 			"/>
		</g>
		<g>
			<polygon fill="#FFFFFF" points="2299.7,528 2310.1,525.8 2299.7,523.6 2297.5,513.2 2295.4,523.6 2285,525.8 2295.4,528 
				2297.5,538.4 			"/>
			<polygon fill="#FFFFFF" points="2297.5,528 2303.8,532 2299.7,525.8 2303.8,519.5 2297.5,523.6 2291.3,519.5 2295.4,525.8 
				2291.3,532 			"/>
		</g>
		<g>
			<polygon fill="#FFFFFF" points="2216.6,666.5 2224.7,664.8 2216.6,663.1 2214.9,655 2213.2,663.1 2205.1,664.8 2213.2,666.5 
				2214.9,674.6 			"/>
			<polygon fill="#FFFFFF" points="2214.9,666.5 2219.7,669.7 2216.6,664.8 2219.7,659.9 2214.9,663.1 2210,659.9 2213.2,664.8 
				2210,669.7 			"/>
		</g>
		<g>
			<polygon fill="#FFFFFF" points="2328,840.6 2338.6,838.4 2328,836.2 2325.8,825.6 2323.5,836.2 2313,838.4 2323.5,840.6 
				2325.8,851.2 			"/>
			<polygon fill="#FFFFFF" points="2325.8,840.6 2332.2,844.8 2328,838.4 2332.2,832 2325.8,836.2 2319.4,832 2323.5,838.4 
				2319.4,844.8 			"/>
		</g>
		<g>
			<polygon fill="#FFFFFF" points="2485.7,997.9 2491.4,996.7 2485.7,995.5 2484.5,989.9 2483.4,995.5 2477.7,996.7 2483.4,997.9 
				2484.5,1003.5 			"/>
			<polygon fill="#FFFFFF" points="2484.5,997.9 2487.9,1000.1 2485.7,996.7 2487.9,993.3 2484.5,995.5 2481.1,993.3 2483.4,996.7 
				2481.1,1000.1 			"/>
		</g>
		<g>
			<polygon fill="#FFFFFF" points="2396.5,1168.9 2402,1167.8 2396.5,1166.6 2395.4,1161.2 2394.2,1166.6 2388.8,1167.8 
				2394.2,1168.9 2395.4,1174.4 			"/>
			<polygon fill="#FFFFFF" points="2395.4,1168.9 2398.7,1171.1 2396.5,1167.8 2398.7,1164.5 2395.4,1166.6 2392.1,1164.5 
				2394.2,1167.8 2392.1,1171.1 			"/>
		</g>
		<g>
			<polygon fill="#FFFFFF" points="2476.6,1303.2 2486.5,1301.1 2476.6,1299 2474.5,1289.1 2472.4,1299 2462.5,1301.1 
				2472.4,1303.2 2474.5,1313.1 			"/>
			<polygon fill="#FFFFFF" points="2474.5,1303.2 2480.5,1307.1 2476.6,1301.1 2480.5,1295.1 2474.5,1299 2468.5,1295.1 
				2472.4,1301.1 2468.5,1307.1 			"/>
		</g>
		<g>
			<polygon fill="#FFFFFF" points="2353.1,1477.5 2363.7,1475.2 2353.1,1473 2350.9,1462.4 2348.7,1473 2338.1,1475.2 
				2348.7,1477.5 2350.9,1488.1 			"/>
			<polygon fill="#FFFFFF" points="2350.9,1477.4 2357.3,1481.6 2353.1,1475.2 2357.3,1468.8 2350.9,1473 2344.5,1468.8 
				2348.7,1475.2 2344.5,1481.6 			"/>
		</g>
		<g>
			<polygon fill="#FFFFFF" points="2455.9,1659.2 2465.7,1657.2 2455.9,1655.1 2453.8,1645.2 2451.7,1655.1 2441.9,1657.2 
				2451.7,1659.2 2453.8,1669.1 			"/>
			<polygon fill="#FFFFFF" points="2453.8,1659.2 2459.8,1663.1 2455.9,1657.2 2459.8,1651.2 2453.8,1655.1 2447.9,1651.2 
				2451.8,1657.2 2447.9,1663.1 			"/>
		</g>
		<g>
			<polygon fill="#FFFFFF" points="2448.4,1842.6 2458.5,1840.5 2448.4,1838.3 2446.2,1828.1 2444,1838.3 2433.8,1840.5 
				2444,1842.6 2446.2,1852.8 			"/>
			<polygon fill="#FFFFFF" points="2446.2,1842.6 2452.4,1846.6 2448.3,1840.5 2452.4,1834.3 2446.2,1838.3 2440,1834.3 
				2444.1,1840.5 2440,1846.6 			"/>
		</g>
		<g>
			<polygon fill="#FFFFFF" points="2341.3,2005.9 2347.6,2004.6 2341.3,2003.2 2340,1996.9 2338.7,2003.2 2332.4,2004.6 
				2338.7,2005.9 2340,2012.2 			"/>
			<polygon fill="#FFFFFF" points="2340,2005.9 2343.8,2008.3 2341.3,2004.6 2343.8,2000.8 2340,2003.2 2336.2,2000.8 
				2338.7,2004.6 2336.2,2008.3 			"/>
		</g>
		<g>
			<polygon fill="#FFFFFF" points="2457.4,2158.7 2467.1,2156.6 2457.4,2154.6 2455.4,2145 2453.4,2154.6 2443.7,2156.6 
				2453.4,2158.7 2455.4,2168.3 			"/>
			<polygon fill="#FFFFFF" points="2455.4,2158.7 2461.2,2162.4 2457.4,2156.6 2461.2,2150.8 2455.4,2154.6 2449.6,2150.8 
				2453.4,2156.6 2449.6,2162.4 			"/>
		</g>
		<g>
			<polygon fill="#FFFFFF" points="2125.5,2245.4 2132,2244 2125.5,2242.6 2124.2,2236.2 2122.8,2242.6 2116.3,2244 2122.8,2245.4 
				2124.2,2251.9 			"/>
			<polygon fill="#FFFFFF" points="2124.2,2245.4 2128.1,2247.9 2125.5,2244 2128.1,2240.1 2124.2,2242.6 2120.3,2240.1 
				2122.8,2244 2120.3,2247.9 			"/>
		</g>
		<g>
			<polygon fill="#FFFFFF" points="2364.2,2413.7 2372.8,2411.9 2364.2,2410.1 2362.4,2401.5 2360.6,2410.1 2352,2411.9 
				2360.6,2413.7 2362.4,2422.2 			"/>
			<polygon fill="#FFFFFF" points="2362.4,2413.7 2367.6,2417 2364.2,2411.9 2367.6,2406.7 2362.4,2410.1 2357.2,2406.7 
				2360.6,2411.9 2357.2,2417 			"/>
		</g>
		<g>
			<polygon fill="#FFFFFF" points="2307.6,2574.3 2318.1,2572.1 2307.6,2569.9 2305.4,2559.4 2303.2,2569.9 2292.8,2572.1 
				2303.2,2574.3 2305.4,2584.8 			"/>
			<polygon fill="#FFFFFF" points="2305.4,2574.3 2311.8,2578.4 2307.6,2572.1 2311.8,2565.8 2305.4,2569.9 2299.1,2565.8 
				2303.2,2572.1 2299.1,2578.4 			"/>
		</g>
		<g>
			<polygon fill="#FFFFFF" points="2253.3,2716.6 2259,2715.4 2253.3,2714.2 2252.1,2708.5 2250.9,2714.2 2245.2,2715.4 
				2250.9,2716.6 2252.1,2722.3 			"/>
			<polygon fill="#FFFFFF" points="2252.1,2716.6 2255.5,2718.9 2253.3,2715.4 2255.5,2712 2252.1,2714.2 2248.6,2712 
				2250.9,2715.4 2248.6,2718.9 			"/>
		</g>
		<g>
			<polygon fill="#FFFFFF" points="1676.6,2600.4 1685.2,2598.6 1676.6,2596.8 1674.8,2588.2 1673,2596.8 1664.4,2598.6 
				1673,2600.4 1674.8,2609 			"/>
			<polygon fill="#FFFFFF" points="1674.8,2600.4 1680,2603.8 1676.6,2598.6 1680,2593.4 1674.8,2596.8 1669.6,2593.4 1673,2598.6 
				1669.6,2603.8 			"/>
		</g>
		<g>
			<polygon fill="#FFFFFF" points="1594.3,2417.9 1601.4,2416.4 1594.3,2414.9 1592.8,2407.8 1591.3,2414.9 1584.2,2416.4 
				1591.3,2417.9 1592.8,2425 			"/>
			<polygon fill="#FFFFFF" points="1592.8,2417.9 1597.1,2420.7 1594.3,2416.4 1597.1,2412.1 1592.8,2414.9 1588.5,2412.1 
				1591.3,2416.4 1588.5,2420.7 			"/>
		</g>
		<g>
			<polygon fill="#FFFFFF" points="1956.8,2280 1964.7,2278.3 1956.8,2276.6 1955.1,2268.6 1953.4,2276.6 1945.4,2278.3 
				1953.4,2280 1955.1,2287.9 			"/>
			<polygon fill="#FFFFFF" points="1955.1,2279.9 1959.9,2283.1 1956.8,2278.3 1959.9,2273.5 1955.1,2276.6 1950.3,2273.5 
				1953.4,2278.3 1950.3,2283.1 			"/>
		</g>
		<g>
			<polygon fill="#FFFFFF" points="1878.4,2142.3 1883.8,2141.2 1878.4,2140 1877.3,2134.6 1876.1,2140 1870.7,2141.2 
				1876.1,2142.3 1877.3,2147.7 			"/>
			<polygon fill="#FFFFFF" points="1877.3,2142.3 1880.5,2144.4 1878.4,2141.2 1880.5,2137.9 1877.3,2140 1874,2137.9 
				1876.1,2141.2 1874,2144.4 			"/>
		</g>
		<g>
			<polygon fill="#FFFFFF" points="1708.4,1971.3 1714.3,1970.1 1708.4,1968.8 1707.2,1962.9 1705.9,1968.8 1700,1970.1 
				1705.9,1971.3 1707.2,1977.2 			"/>
			<polygon fill="#FFFFFF" points="1707.2,1971.3 1710.7,1973.6 1708.4,1970.1 1710.7,1966.5 1707.2,1968.8 1703.6,1966.5 
				1705.9,1970.1 1703.6,1973.6 			"/>
		</g>
		<g>
			<polygon fill="#FFFFFF" points="1911.7,1816.4 1917.4,1815.2 1911.7,1814 1910.6,1808.4 1909.4,1814 1903.8,1815.2 
				1909.4,1816.4 1910.6,1822 			"/>
			<polygon fill="#FFFFFF" points="1910.6,1816.4 1914,1818.6 1911.7,1815.2 1914,1811.8 1910.6,1814 1907.2,1811.8 1909.4,1815.2 
				1907.2,1818.6 			"/>
		</g>
		<g>
			<polygon fill="#FFFFFF" points="1996,1232.1 2005.7,1230.1 1996,1228 1993.9,1218.3 1991.9,1228 1982.2,1230.1 1991.9,1232.1 
				1993.9,1241.9 			"/>
			<polygon fill="#FFFFFF" points="1993.9,1232.1 1999.8,1236 1996,1230.1 1999.8,1224.2 1993.9,1228 1988.1,1224.2 1991.9,1230.1 
				1988.1,1236 			"/>
		</g>
		<g>
			<polygon fill="#FFFFFF" points="1798.3,929.7 1811.2,927 1798.3,924.3 1795.6,911.4 1792.8,924.3 1779.9,927 1792.8,929.7 
				1795.6,942.7 			"/>
			<polygon fill="#FFFFFF" points="1795.6,929.7 1803.4,934.8 1798.3,927 1803.4,919.2 1795.6,924.3 1787.8,919.2 1792.8,927 
				1787.8,934.8 			"/>
		</g>
		<g>
			<polygon fill="#FFFFFF" points="2038.3,799.3 2049.5,796.9 2038.3,794.5 2035.9,783.3 2033.5,794.5 2022.3,796.9 2033.5,799.3 
				2035.9,810.5 			"/>
			<polygon fill="#FFFFFF" points="2035.9,799.3 2042.7,803.7 2038.3,796.9 2042.7,790.1 2035.9,794.5 2029.1,790.1 2033.5,796.9 
				2029.1,803.7 			"/>
		</g>
		<g>
			<polygon fill="#FFFFFF" points="1879.9,612.6 1887.4,611 1879.9,609.4 1878.4,602 1876.8,609.4 1869.3,611 1876.8,612.6 
				1878.4,620 			"/>
			<polygon fill="#FFFFFF" points="1878.4,612.6 1882.9,615.5 1879.9,611 1882.9,606.5 1878.4,609.5 1873.9,606.5 1876.8,611 
				1873.9,615.5 			"/>
		</g>
		<g>
			<polygon fill="#FFFFFF" points="1629.3,442.2 1638.7,440.2 1629.3,438.2 1627.3,428.8 1625.3,438.2 1615.9,440.2 1625.3,442.2 
				1627.3,451.7 			"/>
			<polygon fill="#FFFFFF" points="1627.3,442.2 1633,445.9 1629.3,440.2 1633,434.5 1627.3,438.3 1621.6,434.5 1625.3,440.2 
				1621.6,445.9 			"/>
		</g>
		<g>
			<polygon fill="#FFFFFF" points="1699,308.8 1704.7,307.5 1699,306.3 1697.8,300.6 1696.5,306.3 1690.8,307.5 1696.5,308.8 
				1697.8,314.5 			"/>
			<polygon fill="#FFFFFF" points="1697.8,308.8 1701.2,311 1699,307.5 1701.2,304.1 1697.8,306.3 1694.3,304.1 1696.5,307.5 
				1694.3,311 			"/>
		</g>
		<g>
			<polygon fill="#FFFFFF" points="1743.9,183 1751.1,181.5 1743.9,180 1742.3,172.8 1740.8,180 1733.6,181.5 1740.8,183 
				1742.3,190.3 			"/>
			<polygon fill="#FFFFFF" points="1742.3,183 1746.7,185.9 1743.9,181.5 1746.7,177.2 1742.3,180 1738,177.2 1740.8,181.5 
				1738,185.9 			"/>
		</g>
		<g>
			<polygon fill="#FFFFFF" points="1566.5,58.7 1575.8,56.8 1566.5,54.8 1564.5,45.5 1562.5,54.8 1553.2,56.8 1562.5,58.7 
				1564.5,68.1 			"/>
			<polygon fill="#FFFFFF" points="1564.5,58.7 1570.1,62.4 1566.4,56.8 1570.1,51.1 1564.5,54.8 1558.8,51.1 1562.5,56.8 
				1558.8,62.4 			"/>
		</g>
		<g>
			<polygon fill="#FFFFFF" points="1566.3,170.4 1574.2,168.7 1566.3,167 1564.6,159.1 1562.9,167 1555,168.7 1562.9,170.4 
				1564.6,178.3 			"/>
			<polygon fill="#FFFFFF" points="1564.6,170.4 1569.4,173.5 1566.3,168.7 1569.4,163.9 1564.6,167 1559.8,163.9 1562.9,168.7 
				1559.8,173.5 			"/>
		</g>
		<g>
			<polygon fill="#FFFFFF" points="1544.2,302.4 1554.6,300.2 1544.2,298 1542.1,287.7 1539.9,298 1529.5,300.2 1539.9,302.4 
				1542.1,312.7 			"/>
			<polygon fill="#FFFFFF" points="1542.1,302.4 1548.3,306.4 1544.2,300.2 1548.3,294 1542.1,298 1535.8,294 1539.9,300.2 
				1535.8,306.4 			"/>
		</g>
		<g>
			<polygon fill="#FFFFFF" points="1143.6,428.7 1154.3,426.4 1143.6,424.1 1141.3,413.4 1139.1,424.1 1128.3,426.4 1139.1,428.7 
				1141.3,439.4 			"/>
			<polygon fill="#FFFFFF" points="1141.3,428.7 1147.8,432.9 1143.6,426.4 1147.8,419.9 1141.3,424.1 1134.8,419.9 1139.1,426.4 
				1134.8,432.9 			"/>
		</g>
		<g>
			<polygon fill="#FFFFFF" points="1275.2,583.1 1286.5,580.7 1275.2,578.3 1272.8,566.9 1270.4,578.3 1259.1,580.7 1270.4,583.1 
				1272.8,594.4 			"/>
			<polygon fill="#FFFFFF" points="1272.8,583.1 1279.7,587.5 1275.2,580.7 1279.7,573.8 1272.8,578.3 1266,573.8 1270.4,580.7 
				1266,587.5 			"/>
		</g>
		<g>
			<polygon fill="#FFFFFF" points="1285.3,762.6 1298,760 1285.3,757.3 1282.6,744.6 1279.9,757.3 1267.2,760 1279.9,762.6 
				1282.6,775.3 			"/>
			<polygon fill="#FFFFFF" points="1282.6,762.6 1290.3,767.6 1285.3,760 1290.3,752.3 1282.6,757.3 1275,752.3 1279.9,760 
				1275,767.6 			"/>
		</g>
		<g>
			<polygon fill="#FFFFFF" points="1450.4,924.5 1456.7,923.2 1450.4,921.9 1449.1,915.7 1447.8,921.9 1441.6,923.2 1447.8,924.5 
				1449.1,930.8 			"/>
			<polygon fill="#FFFFFF" points="1449.1,924.5 1452.9,927 1450.4,923.2 1452.9,919.5 1449.1,921.9 1445.3,919.5 1447.8,923.2 
				1445.3,927 			"/>
		</g>
		<g>
			<polygon fill="#FFFFFF" points="1437.8,1951.7 1450.8,1949 1437.8,1946.3 1435.1,1933.3 1432.3,1946.3 1419.3,1949 
				1432.3,1951.7 1435.1,1964.7 			"/>
			<polygon fill="#FFFFFF" points="1435.1,1951.7 1442.9,1956.8 1437.8,1949 1442.9,1941.2 1435.1,1946.3 1427.2,1941.2 
				1432.3,1949 1427.2,1956.8 			"/>
		</g>
		<g>
			<polygon fill="#FFFFFF" points="1156.9,2066.1 1163.4,2064.8 1156.9,2063.4 1155.5,2056.9 1154.2,2063.4 1147.7,2064.8 
				1154.2,2066.1 1155.5,2072.6 			"/>
			<polygon fill="#FFFFFF" points="1155.5,2066.1 1159.4,2068.7 1156.9,2064.8 1159.4,2060.8 1155.5,2063.4 1151.6,2060.8 
				1154.2,2064.8 1151.6,2068.7 			"/>
		</g>
		<g>
			<polygon fill="#FFFFFF" points="1249.5,2242.6 1257.3,2240.9 1249.5,2239.3 1247.8,2231.4 1246.1,2239.3 1238.3,2240.9 
				1246.1,2242.6 1247.8,2250.4 			"/>
			<polygon fill="#FFFFFF" points="1247.8,2242.6 1252.5,2245.6 1249.4,2240.9 1252.5,2236.2 1247.8,2239.3 1243.1,2236.2 
				1246.2,2240.9 1243.1,2245.6 			"/>
		</g>
		<g>
			<polygon fill="#FFFFFF" points="1218.1,2375 1226.9,2373.1 1218.1,2371.3 1216.3,2362.4 1214.4,2371.3 1205.6,2373.1 
				1214.4,2375 1216.3,2383.8 			"/>
			<polygon fill="#FFFFFF" points="1216.3,2375 1221.6,2378.5 1218.1,2373.1 1221.6,2367.8 1216.3,2371.3 1210.9,2367.8 
				1214.4,2373.1 1210.9,2378.5 			"/>
		</g>
		<g>
			<polygon fill="#FFFFFF" points="968.8,2512.6 974.7,2511.3 968.8,2510.1 967.6,2504.2 966.3,2510.1 960.4,2511.3 966.3,2512.6 
				967.6,2518.5 			"/>
			<polygon fill="#FFFFFF" points="967.6,2512.6 971.1,2514.9 968.8,2511.3 971.1,2507.8 967.6,2510.1 964,2507.8 966.3,2511.3 
				964,2514.9 			"/>
		</g>
		<g>
			<polygon fill="#FFFFFF" points="1375.2,2736.1 1383.8,2734.3 1375.2,2732.5 1373.4,2723.9 1371.6,2732.5 1363,2734.3 
				1371.6,2736.1 1373.4,2744.7 			"/>
			<polygon fill="#FFFFFF" points="1373.4,2736.1 1378.6,2739.5 1375.2,2734.3 1378.6,2729.2 1373.4,2732.5 1368.2,2729.2 
				1371.6,2734.3 1368.2,2739.5 			"/>
		</g>
		<g>
			<polygon fill="#FFFFFF" points="771,2757.8 784.3,2755 771,2752.2 768.2,2738.9 765.4,2752.2 752.1,2755 765.4,2757.8 
				768.2,2771.1 			"/>
			<polygon fill="#FFFFFF" points="768.2,2757.8 776.2,2763 771,2755 776.2,2747 768.2,2752.2 760.2,2747 765.4,2755 760.2,2763 			
				"/>
		</g>
		<g>
			<polygon fill="#FFFFFF" points="917.1,2628.9 928.2,2626.6 917.1,2624.2 914.8,2613.1 912.4,2624.2 901.3,2626.6 912.4,2628.9 
				914.8,2640 			"/>
			<polygon fill="#FFFFFF" points="914.8,2628.9 921.5,2633.3 917.1,2626.6 921.5,2619.9 914.8,2624.2 908.1,2619.9 912.4,2626.6 
				908.1,2633.3 			"/>
		</g>
		<g>
			<polygon fill="#FFFFFF" points="891.4,2495.5 899.6,2493.8 891.4,2492 889.6,2483.8 887.9,2492 879.7,2493.8 887.9,2495.5 
				889.6,2503.7 			"/>
			<polygon fill="#FFFFFF" points="889.6,2495.5 894.6,2498.7 891.3,2493.8 894.6,2488.8 889.6,2492 884.7,2488.8 887.9,2493.8 
				884.7,2498.7 			"/>
		</g>
		<g>
			<polygon fill="#FFFFFF" points="828.9,2362.9 841.3,2360.3 828.9,2357.7 826.2,2345.2 823.6,2357.7 811.2,2360.3 823.6,2362.9 
				826.2,2375.4 			"/>
			<polygon fill="#FFFFFF" points="826.2,2362.9 833.7,2367.8 828.9,2360.3 833.7,2352.8 826.2,2357.7 818.7,2352.8 823.6,2360.3 
				818.7,2367.8 			"/>
		</g>
		<g>
			<polygon fill="#FFFFFF" points="495,2203.2 501.8,2201.8 495,2200.4 493.6,2193.6 492.1,2200.4 485.3,2201.8 492.1,2203.2 
				493.6,2210 			"/>
			<polygon fill="#FFFFFF" points="493.6,2203.2 497.6,2205.9 495,2201.8 497.6,2197.7 493.6,2200.4 489.5,2197.7 492.1,2201.8 
				489.5,2205.9 			"/>
		</g>
		<g>
			<polygon fill="#FFFFFF" points="812.1,2076.1 817.8,2074.9 812.1,2073.7 810.9,2068 809.7,2073.7 804,2074.9 809.7,2076.1 
				810.9,2081.8 			"/>
			<polygon fill="#FFFFFF" points="810.9,2076.1 814.3,2078.3 812.1,2074.9 814.3,2071.5 810.9,2073.7 807.4,2071.5 809.7,2074.9 
				807.4,2078.3 			"/>
		</g>
		<g>
			<polygon fill="#FFFFFF" points="904.7,1908.4 913,1906.7 904.7,1904.9 903,1896.7 901.2,1904.9 893,1906.7 901.2,1908.4 
				903,1916.7 			"/>
			<polygon fill="#FFFFFF" points="903,1908.4 908,1911.7 904.7,1906.7 908,1901.7 903,1904.9 898,1901.7 901.2,1906.7 898,1911.7 
							"/>
		</g>
		<g>
			<polygon fill="#FFFFFF" points="873.9,1773.8 886.7,1771.1 873.9,1768.4 871.2,1755.6 868.5,1768.4 855.7,1771.1 868.5,1773.8 
				871.2,1786.6 			"/>
			<polygon fill="#FFFFFF" points="871.2,1773.8 878.9,1778.8 873.9,1771.1 878.9,1763.4 871.2,1768.4 863.5,1763.4 868.5,1771.1 
				863.5,1778.8 			"/>
		</g>
		<g>
			<polygon fill="#FFFFFF" points="799.8,1638.7 807.1,1637.1 799.8,1635.6 798.3,1628.4 796.8,1635.6 789.5,1637.1 796.8,1638.7 
				798.3,1645.9 			"/>
			<polygon fill="#FFFFFF" points="798.3,1638.7 802.7,1641.5 799.8,1637.1 802.7,1632.8 798.3,1635.6 793.9,1632.8 796.8,1637.1 
				793.9,1641.5 			"/>
		</g>
		<g>
			<polygon fill="#FFFFFF" points="652,1453.6 664.2,1451.1 652,1448.5 649.4,1436.3 646.8,1448.5 634.6,1451.1 646.8,1453.6 
				649.4,1465.9 			"/>
			<polygon fill="#FFFFFF" points="649.4,1453.6 656.8,1458.4 652,1451.1 656.8,1443.7 649.4,1448.5 642,1443.7 646.8,1451.1 
				642,1458.4 			"/>
		</g>
		<g>
			<polygon fill="#FFFFFF" points="841.9,1281.3 854.8,1278.5 841.9,1275.8 839.1,1262.9 836.4,1275.8 823.5,1278.5 836.4,1281.3 
				839.1,1294.2 			"/>
			<polygon fill="#FFFFFF" points="839.1,1281.3 846.9,1286.3 841.9,1278.5 846.9,1270.7 839.1,1275.8 831.3,1270.7 836.4,1278.5 
				831.3,1286.3 			"/>
		</g>
		<g>
			<polygon fill="#FFFFFF" points="622.5,1094.5 635.2,1091.9 622.5,1089.2 619.8,1076.5 617.1,1089.2 604.5,1091.9 617.1,1094.5 
				619.8,1107.2 			"/>
			<polygon fill="#FFFFFF" points="619.8,1094.5 627.5,1099.5 622.5,1091.9 627.5,1084.2 619.8,1089.2 612.2,1084.2 617.2,1091.9 
				612.2,1099.5 			"/>
		</g>
		<g>
			<polygon fill="#FFFFFF" points="923.5,974.5 928.8,973.3 923.5,972.2 922.3,966.8 921.2,972.2 915.8,973.3 921.2,974.5 
				922.3,979.8 			"/>
			<polygon fill="#FFFFFF" points="922.3,974.5 925.6,976.6 923.5,973.3 925.6,970.1 922.3,972.2 919.1,970.1 921.2,973.3 
				919.1,976.6 			"/>
		</g>
		<g>
			<polygon fill="#FFFFFF" points="563.2,811.6 573,809.5 563.2,807.5 561.1,797.7 559,807.5 549.2,809.5 559,811.6 561.1,821.4 			
				"/>
			<polygon fill="#FFFFFF" points="561.1,811.6 567,815.5 563.1,809.5 567,803.6 561.1,807.5 555.2,803.6 559,809.5 555.2,815.5 			
				"/>
		</g>
		<g>
			<polygon fill="#FFFFFF" points="688.7,664.8 698.3,662.8 688.7,660.7 686.6,651.1 684.6,660.7 675,662.8 684.6,664.8 
				686.6,674.4 			"/>
			<polygon fill="#FFFFFF" points="686.6,664.8 692.4,668.6 688.7,662.8 692.4,657 686.6,660.7 680.8,657 684.6,662.8 680.8,668.6 
							"/>
		</g>
		<g>
			<polygon fill="#FFFFFF" points="746.4,498.7 755.3,496.8 746.4,494.9 744.6,486.1 742.7,494.9 733.9,496.8 742.7,498.7 
				744.6,507.5 			"/>
			<polygon fill="#FFFFFF" points="744.6,498.7 749.9,502.1 746.4,496.8 749.9,491.5 744.6,494.9 739.3,491.5 742.7,496.8 
				739.3,502.1 			"/>
		</g>
		<g>
			<polygon fill="#FFFFFF" points="844.5,347.1 850.2,345.9 844.5,344.7 843.4,339.1 842.2,344.7 836.5,345.9 842.2,347.1 
				843.4,352.8 			"/>
			<polygon fill="#FFFFFF" points="843.4,347.1 846.8,349.4 844.5,345.9 846.8,342.5 843.4,344.8 839.9,342.5 842.2,345.9 
				839.9,349.4 			"/>
		</g>
		<g>
			<polygon fill="#FFFFFF" points="1024.8,217.1 1032.4,215.5 1024.8,213.9 1023.2,206.2 1021.5,213.9 1013.9,215.5 1021.5,217.1 
				1023.2,224.7 			"/>
			<polygon fill="#FFFFFF" points="1023.2,217.1 1027.8,220.1 1024.8,215.5 1027.8,210.9 1023.2,213.9 1018.5,210.9 1021.6,215.5 
				1018.5,220.1 			"/>
		</g>
		<g>
			<polygon fill="#FFFFFF" points="693.9,95.1 700.7,93.7 693.9,92.2 692.5,85.4 691,92.2 684.2,93.7 691,95.1 692.5,101.9 			"/>
			<polygon fill="#FFFFFF" points="692.5,95.1 696.6,97.8 693.9,93.7 696.6,89.6 692.5,92.2 688.4,89.6 691,93.7 688.4,97.8 			"/>
		</g>
		<g>
			<polygon fill="#FFFFFF" points="401.9,74 412.1,71.8 401.9,69.7 399.8,59.6 397.6,69.7 387.5,71.8 397.6,74 399.8,84.1 			"/>
			<polygon fill="#FFFFFF" points="399.8,74 405.9,78 401.9,71.8 405.9,65.7 399.8,69.7 393.7,65.7 397.7,71.8 393.7,78 			"/>
		</g>
		<g>
			<polygon fill="#FFFFFF" points="318.6,252.9 329.4,250.6 318.6,248.3 316.4,237.5 314.1,248.3 303.3,250.6 314.1,252.9 
				316.4,263.7 			"/>
			<polygon fill="#FFFFFF" points="316.4,252.9 322.9,257.1 318.6,250.6 322.9,244.1 316.4,248.3 309.9,244.1 314.1,250.6 
				309.9,257.1 			"/>
		</g>
		<g>
			<polygon fill="#FFFFFF" points="471.9,425.4 481.2,423.4 471.9,421.5 469.9,412.1 468,421.5 458.7,423.4 468,425.4 469.9,434.7 
							"/>
			<polygon fill="#FFFFFF" points="469.9,425.4 475.5,429 471.9,423.4 475.5,417.8 469.9,421.5 464.3,417.8 468,423.4 464.3,429 			
				"/>
		</g>
		<g>
			<polygon fill="#FFFFFF" points="505.3,567.9 518.2,565.1 505.3,562.4 502.6,549.5 499.9,562.4 487,565.1 499.9,567.9 
				502.6,580.8 			"/>
			<polygon fill="#FFFFFF" points="502.6,567.9 510.4,572.9 505.3,565.1 510.4,557.3 502.6,562.4 494.8,557.3 499.9,565.1 
				494.8,572.9 			"/>
		</g>
		<g>
			<polygon fill="#FFFFFF" points="417.2,697.8 429.6,695.2 417.2,692.6 414.5,680.2 411.9,692.6 399.5,695.2 411.9,697.8 
				414.5,710.2 			"/>
			<polygon fill="#FFFFFF" points="414.5,697.8 422,702.7 417.2,695.2 422,687.7 414.5,692.6 407.1,687.7 411.9,695.2 407.1,702.7 
							"/>
		</g>
		<g>
			<polygon fill="#FFFFFF" points="234.9,820.6 242.6,819 234.9,817.4 233.3,809.7 231.6,817.4 223.9,819 231.6,820.6 233.3,828.3 
							"/>
			<polygon fill="#FFFFFF" points="233.3,820.6 237.9,823.7 234.9,819 237.9,814.4 233.3,817.4 228.6,814.4 231.6,819 228.6,823.7 
							"/>
		</g>
		<g>
			<polygon fill="#FFFFFF" points="350.3,990.2 357.1,988.7 350.3,987.3 348.9,980.5 347.5,987.3 340.7,988.7 347.5,990.2 
				348.9,996.9 			"/>
			<polygon fill="#FFFFFF" points="348.9,990.2 353,992.8 350.3,988.7 353,984.6 348.9,987.3 344.8,984.6 347.5,988.7 344.8,992.8 
							"/>
		</g>
		<g>
			<polygon fill="#FFFFFF" points="305.9,1160 316.1,1157.9 305.9,1155.7 303.8,1145.5 301.6,1155.7 291.5,1157.9 301.6,1160 
				303.8,1170.2 			"/>
			<polygon fill="#FFFFFF" points="303.8,1160 309.9,1164 305.9,1157.9 309.9,1151.7 303.8,1155.7 297.6,1151.7 301.6,1157.9 
				297.6,1164 			"/>
		</g>
		<g>
			<polygon fill="#FFFFFF" points="580.5,1296.4 589.5,1294.5 580.5,1292.6 578.6,1283.6 576.7,1292.6 567.6,1294.5 576.7,1296.4 
				578.6,1305.5 			"/>
			<polygon fill="#FFFFFF" points="578.6,1296.4 584,1300 580.5,1294.5 584,1289.1 578.6,1292.6 573.1,1289.1 576.7,1294.5 
				573.1,1300 			"/>
		</g>
		<g>
			<polygon fill="#FFFFFF" points="462.8,1436.9 474.3,1434.4 462.8,1432 460.3,1420.5 457.9,1432 446.4,1434.4 457.9,1436.9 
				460.3,1448.4 			"/>
			<polygon fill="#FFFFFF" points="460.3,1436.9 467.3,1441.4 462.7,1434.4 467.3,1427.5 460.3,1432 453.4,1427.5 457.9,1434.4 
				453.4,1441.4 			"/>
		</g>
		<g>
			<polygon fill="#FFFFFF" points="616.5,1589.3 621.9,1588.1 616.5,1587 615.3,1581.6 614.2,1587 608.8,1588.1 614.2,1589.3 
				615.3,1594.7 			"/>
			<polygon fill="#FFFFFF" points="615.3,1589.3 618.6,1591.4 616.5,1588.1 618.6,1584.9 615.3,1587 612.1,1584.9 614.2,1588.1 
				612.1,1591.4 			"/>
		</g>
		<g>
			<polygon fill="#FFFFFF" points="571.1,1750.3 577.1,1749 571.1,1747.8 569.9,1741.9 568.6,1747.8 562.7,1749 568.6,1750.3 
				569.9,1756.2 			"/>
			<polygon fill="#FFFFFF" points="569.9,1750.3 573.5,1752.6 571.1,1749 573.5,1745.5 569.9,1747.8 566.3,1745.5 568.6,1749 
				566.3,1752.6 			"/>
		</g>
		<g>
			<polygon fill="#FFFFFF" points="543.2,1882.6 555.2,1880 543.2,1877.5 540.6,1865.5 538.1,1877.5 526.1,1880 538.1,1882.6 
				540.6,1894.6 			"/>
			<polygon fill="#FFFFFF" points="540.6,1882.6 547.9,1887.3 543.2,1880 547.9,1872.8 540.6,1877.5 533.4,1872.8 538.1,1880 
				533.4,1887.3 			"/>
		</g>
		<g>
			<polygon fill="#FFFFFF" points="346.7,2019.4 356.3,2017.3 346.7,2015.3 344.6,2005.6 342.6,2015.3 333,2017.3 342.6,2019.4 
				344.6,2029 			"/>
			<polygon fill="#FFFFFF" points="344.6,2019.4 350.5,2023.1 346.7,2017.3 350.5,2011.5 344.6,2015.3 338.8,2011.5 342.6,2017.3 
				338.8,2023.1 			"/>
		</g>
		<g>
			<polygon fill="#FFFFFF" points="124,2147.7 135.2,2145.3 124,2142.9 121.7,2131.8 119.3,2142.9 108.1,2145.3 119.3,2147.7 
				121.7,2158.8 			"/>
			<polygon fill="#FFFFFF" points="121.7,2147.6 128.4,2152 124,2145.3 128.4,2138.6 121.7,2143 114.9,2138.6 119.3,2145.3 
				114.9,2152 			"/>
		</g>
		<g>
			<polygon fill="#FFFFFF" points="183.1,2301.6 194.3,2299.2 183.1,2296.8 180.8,2285.7 178.4,2296.8 167.2,2299.2 178.4,2301.6 
				180.8,2312.7 			"/>
			<polygon fill="#FFFFFF" points="180.8,2301.6 187.5,2305.9 183.1,2299.2 187.5,2292.5 180.8,2296.8 174,2292.5 178.4,2299.2 
				174,2305.9 			"/>
		</g>
		<g>
			<polygon fill="#FFFFFF" points="438.5,2468.8 448.9,2466.6 438.5,2464.4 436.3,2453.9 434.1,2464.4 423.6,2466.6 434.1,2468.8 
				436.3,2479.2 			"/>
			<polygon fill="#FFFFFF" points="436.3,2468.8 442.6,2472.9 438.5,2466.6 442.6,2460.3 436.3,2464.4 430,2460.3 434.1,2466.6 
				430,2472.9 			"/>
		</g>
		<g>
			<polygon fill="#FFFFFF" points="246.9,2625.7 256.7,2623.6 246.9,2621.5 244.8,2611.7 242.7,2621.5 232.9,2623.6 242.7,2625.7 
				244.8,2635.5 			"/>
			<polygon fill="#FFFFFF" points="244.8,2625.7 250.7,2629.5 246.9,2623.6 250.7,2617.7 244.8,2621.5 238.9,2617.7 242.7,2623.6 
				238.9,2629.5 			"/>
		</g>
		<g>
			<polygon fill="#FFFFFF" points="102.8,2757.4 114.5,2755 102.8,2752.5 100.4,2740.8 97.9,2752.5 86.2,2755 97.9,2757.4 
				100.4,2769.1 			"/>
			<polygon fill="#FFFFFF" points="100.4,2757.4 107.4,2762 102.8,2755 107.4,2747.9 100.4,2752.5 93.3,2747.9 97.9,2755 93.3,2762 
							"/>
		</g>
		<g>
			<polygon fill="#FFFFFF" points="79.2,2671.8 92,2669.1 79.2,2666.4 76.5,2653.6 73.8,2666.4 60.9,2669.1 73.8,2671.8 
				76.5,2684.7 			"/>
			<polygon fill="#FFFFFF" points="76.5,2671.8 84.2,2676.9 79.2,2669.1 84.2,2661.4 76.5,2666.4 68.7,2661.4 73.8,2669.1 
				68.7,2676.9 			"/>
		</g>
		<g>
			<polygon fill="#FFFFFF" points="79.4,1198.8 91.9,1196.1 79.4,1193.5 76.8,1181 74.1,1193.5 61.7,1196.1 74.1,1198.8 
				76.8,1211.2 			"/>
			<polygon fill="#FFFFFF" points="76.8,1198.8 84.3,1203.7 79.4,1196.1 84.3,1188.6 76.8,1193.5 69.2,1188.6 74.1,1196.1 
				69.2,1203.7 			"/>
		</g>
		<g>
			<polygon fill="#FFFFFF" points="49.1,199.8 62.2,197 49.1,194.3 46.3,181.2 43.6,194.3 30.5,197 43.6,199.8 46.3,212.8 			"/>
			<polygon fill="#FFFFFF" points="46.3,199.8 54.2,204.9 49.1,197 54.2,189.1 46.3,194.3 38.5,189.1 43.6,197 38.5,204.9 			"/>
		</g>
		<g>
			<polygon fill="#FFFFFF" points="116,70.5 124.6,68.7 116,66.9 114.2,58.3 112.4,66.9 103.8,68.7 112.4,70.5 114.2,79.1 			"/>
			<polygon fill="#FFFFFF" points="114.2,70.5 119.4,73.9 116,68.7 119.4,63.5 114.2,66.9 109,63.5 112.4,68.7 109,73.9 			"/>
		</g>
	</g>
</g>
<g id="SUN">
	<g>
		<linearGradient id="SVGID_2_" gradientUnits="userSpaceOnUse" x1="1400" y1="995.6241" x2="1400" y2="1864.2832">
			<stop  offset="0" style="stop-color:#ECE956"/>
			<stop  offset="1" style="stop-color:#EF3F6B"/>
		</linearGradient>
		<path fill="url(#SVGID_2_)" d="M971.9,1482.1c3.7,19.4,8.7,38.3,14.8,56.7h826.5c6.2-18.4,11.1-37.3,14.8-56.7H971.9z"/>
		<linearGradient id="SVGID_3_" gradientUnits="userSpaceOnUse" x1="1400" y1="995.6241" x2="1400" y2="1864.2832">
			<stop  offset="0" style="stop-color:#ECE956"/>
			<stop  offset="1" style="stop-color:#EF3F6B"/>
		</linearGradient>
		<path fill="url(#SVGID_3_)" d="M1033.3,1635.6c10.7,16.5,22.4,32.3,35.1,47.2h663.1c12.7-14.9,24.5-30.7,35.1-47.2H1033.3z"/>
		<linearGradient id="SVGID_4_" gradientUnits="userSpaceOnUse" x1="1400" y1="995.6241" x2="1400" y2="1864.2832">
			<stop  offset="0" style="stop-color:#ECE956"/>
			<stop  offset="1" style="stop-color:#EF3F6B"/>
		</linearGradient>
		<path fill="url(#SVGID_4_)" d="M1653,1754.9c18-12.9,35-27.1,50.9-42.5h-607.8c15.8,15.4,32.8,29.6,50.9,42.5H1653z"/>
		<linearGradient id="SVGID_5_" gradientUnits="userSpaceOnUse" x1="1400" y1="995.6241" x2="1400" y2="1864.2832">
			<stop  offset="0" style="stop-color:#ECE956"/>
			<stop  offset="1" style="stop-color:#EF3F6B"/>
		</linearGradient>
		<path fill="url(#SVGID_5_)" d="M994,1558.9c7,17.9,15.2,35.3,24.4,52h763.1c9.2-16.7,17.4-34,24.4-52H994z"/>
		<linearGradient id="SVGID_6_" gradientUnits="userSpaceOnUse" x1="1400" y1="995.6241" x2="1400" y2="1864.2832">
			<stop  offset="0" style="stop-color:#ECE956"/>
			<stop  offset="1" style="stop-color:#EF3F6B"/>
		</linearGradient>
		<path fill="url(#SVGID_6_)" d="M1203.6,1789.2c59,29.8,125.7,46.7,196.4,46.7s137.4-16.8,196.4-46.7H1203.6z"/>
		<linearGradient id="SVGID_7_" gradientUnits="userSpaceOnUse" x1="1400" y1="995.6241" x2="1400" y2="1864.2832">
			<stop  offset="0" style="stop-color:#ECE956"/>
			<stop  offset="1" style="stop-color:#EF3F6B"/>
		</linearGradient>
		<path fill="url(#SVGID_7_)" d="M1835.8,1394.7c-2.8-238.3-196.9-430.5-435.8-430.5s-432.9,192.3-435.8,430.5H1835.8z"/>
		<linearGradient id="SVGID_8_" gradientUnits="userSpaceOnUse" x1="1400" y1="995.6241" x2="1400" y2="1864.2832">
			<stop  offset="0" style="stop-color:#ECE956"/>
			<stop  offset="1" style="stop-color:#EF3F6B"/>
		</linearGradient>
		<path fill="url(#SVGID_8_)" d="M964.2,1405.3c0.2,20.9,2,41.4,5,61.4h861.5c3.1-20.1,4.8-40.6,5-61.4H964.2z"/>
	</g>
</g>
</svg>
